<svg width="40" height="40" viewBox="0 0 40 40" fill="none" xmlns="http://www.w3.org/2000/svg">
<path d="M25.625 18.75C28.7316 18.75 31.25 16.2316 31.25 13.125C31.25 10.0184 28.7316 7.5 25.625 7.5C22.5184 7.5 20 10.0184 20 13.125C20 16.2316 22.5184 18.75 25.625 18.75Z" fill="black"/>
<path d="M37.375 20.625C37.125 20.25 36.75 20 36.25 20C33.5 20 30.875 21.25 29.25 23.5L28.125 25C26.75 26.625 24.625 27.5 22.5 27.5H18.75C18 27.5 17.5 27 17.5 26.25C17.5 25.5 18 25 18.75 25H21.125C23.125 25 25 23.375 25 21.375V21.25C25 20.625 24.375 20 23.75 20H16.125C11.625 20 8 22 6 25.25L2.625 30.5C2.375 30.875 2.375 31.375 2.625 31.75L6.375 38C6.5 38.25 6.875 38.5 7.125 38.625C7.25 38.625 7.25 38.625 7.375 38.625C7.625 38.625 7.875 38.5 8.125 38.375C12.875 35.25 18.375 33.625 24 33.625C28.125 33.625 31.875 31.375 33.875 27.75L37.25 21.75C37.5 21.5 37.5 21 37.375 20.625Z" fill="black"/>
<path d="M17.5 13.125C17.5 10 19.375 7.25 22 5.875C21.125 3.875 19.125 2.5 16.875 2.5C13.75 2.5 11.25 5 11.25 8.125C11.25 11.25 13.75 13.75 16.875 13.75C17.125 13.75 17.25 13.75 17.5 13.625C17.5 13.5 17.5 13.375 17.5 13.125Z" fill="black"/>
</svg>
