<svg width="20" height="20" viewBox="0 0 20 20" fill="none" xmlns="http://www.w3.org/2000/svg">
<g id="add-svgrepo-com(1) 1">
<path id="Vector" d="M3.23715 8.50285C2.67686 8.50285 2.22266 8.92463 2.22266 9.44488C2.22266 9.96513 2.67686 10.3869 3.23715 10.3869V8.50285ZM10.0004 10.3869C10.5607 10.3869 11.0149 9.96513 11.0149 9.44488C11.0149 8.92463 10.5607 8.50285 10.0004 8.50285V10.3869ZM10.0004 8.50285C9.44016 8.50285 8.98594 8.92463 8.98594 9.44488C8.98594 9.96513 9.44016 10.3869 10.0004 10.3869V8.50285ZM16.7637 10.3869C17.324 10.3869 17.7782 9.96513 17.7782 9.44488C17.7782 8.92463 17.324 8.50285 16.7637 8.50285V10.3869ZM11.0149 9.44488C11.0149 8.92463 10.5607 8.50285 10.0004 8.50285C9.44016 8.50285 8.98594 8.92463 8.98594 9.44488H11.0149ZM8.98594 15.7251C8.98594 16.2453 9.44016 16.6671 10.0004 16.6671C10.5607 16.6671 11.0149 16.2453 11.0149 15.7251H8.98594ZM8.98594 9.44488C8.98594 9.96513 9.44016 10.3869 10.0004 10.3869C10.5607 10.3869 11.0149 9.96513 11.0149 9.44488H8.98594ZM11.0149 3.16469C11.0149 2.64442 10.5607 2.22266 10.0004 2.22266C9.44016 2.22266 8.98594 2.64442 8.98594 3.16469H11.0149ZM3.23715 10.3869H10.0004V8.50285H3.23715V10.3869ZM10.0004 10.3869H16.7637V8.50285H10.0004V10.3869ZM10.0004 9.44488H8.98594V9.44614C8.98594 9.44626 8.98594 9.44764 8.98594 9.44764C8.98594 9.44752 8.98594 9.44777 8.98594 9.44764C8.98594 9.44764 8.98594 9.44902 8.98594 9.44915C8.98594 9.44902 8.98594 9.44927 8.98594 9.44915C8.98594 9.44927 8.98594 9.45028 8.98594 9.45041C8.98594 9.45053 8.98594 9.45166 8.98594 9.45179C8.98594 9.45191 8.98594 9.45292 8.98594 9.45304C8.98594 9.45317 8.98594 9.4543 8.98594 9.45455C8.98594 9.45468 8.98594 9.45581 8.98594 9.45606C8.98594 9.45618 8.98594 9.45756 8.98594 9.45769C8.98594 9.45744 8.98594 9.45794 8.98594 9.45769C8.98594 9.45794 8.98594 9.45869 8.98594 9.45895C8.98594 9.45869 8.98594 9.4592 8.98594 9.45895C8.98594 9.4592 8.98594 9.46008 8.98594 9.4602C8.98594 9.45995 8.98594 9.46045 8.98594 9.4602C8.98594 9.46045 8.98594 9.46133 8.98594 9.46158C8.98594 9.46133 8.98594 9.46183 8.98594 9.46158C8.98594 9.46183 8.98594 9.46284 8.98594 9.46309C8.98594 9.46284 8.98594 9.46334 8.98594 9.46309C8.98594 9.46334 8.98594 9.46435 8.98594 9.4646C8.98594 9.46422 8.98594 9.46485 8.98594 9.4646C8.98594 9.46485 8.98594 9.46598 8.98594 9.46623C8.98594 9.46598 8.98594 9.46648 8.98594 9.46623C8.98594 9.46648 8.98594 9.46761 8.98594 9.46799C8.98594 9.46761 8.98594 9.46824 8.98594 9.46799C8.98594 9.46824 8.98594 9.4695 8.98594 9.46975C8.98594 9.4695 8.98594 9.47 8.98594 9.46975C8.98594 9.47013 8.98594 9.47126 8.98594 9.47163C8.98594 9.47126 8.98594 9.47201 8.98594 9.47163C8.98594 9.47188 8.98594 9.47326 8.98594 9.47364C8.98594 9.47326 8.98594 9.47389 8.98594 9.47364C8.98594 9.47402 8.98594 9.47527 8.98594 9.47565C8.98594 9.47527 8.98594 9.47603 8.98594 9.47565C8.98594 9.47603 8.98594 9.47754 8.98594 9.47791C8.98594 9.47754 8.98594 9.47829 8.98594 9.47791C8.98594 9.47829 8.98594 9.4798 8.98594 9.48017C8.98594 9.4798 8.98594 9.48055 8.98594 9.48017C8.98594 9.48055 8.98594 9.48206 8.98594 9.48256C8.98594 9.48218 8.98594 9.48294 8.98594 9.48256C8.98594 9.48306 8.98594 9.48457 8.98594 9.48495C8.98594 9.48545 8.98594 9.48583 8.98594 9.48633C8.98594 9.4867 8.98594 9.48708 8.98594 9.48758C8.98594 9.48809 8.98594 9.48846 8.98594 9.48897C8.98594 9.48934 8.98594 9.48985 8.98594 9.49022C8.98594 9.49072 8.98594 9.49123 8.98594 9.49173C8.98594 9.49211 8.98594 9.49261 8.98594 9.49311C8.98594 9.49361 8.98594 9.49399 8.98594 9.49449C8.98594 9.49499 8.98594 9.4955 8.98594 9.496C8.98594 9.4965 8.98594 9.497 8.98594 9.49751C8.98594 9.49801 8.98594 9.49851 8.98594 9.49901C8.98594 9.49952 8.98594 9.50014 8.98594 9.50065C8.98594 9.50115 8.98594 9.50165 8.98594 9.50215C8.98594 9.50278 8.98594 9.50328 8.98594 9.50379C8.98594 9.50441 8.98594 9.50492 8.98594 9.50542C8.98594 9.50605 8.98594 9.50655 8.98594 9.50718C8.98594 9.50768 8.98594 9.50831 8.98594 9.50881C8.98594 9.50944 8.98594 9.51007 8.98594 9.51057C8.98594 9.5112 8.98594 9.51183 8.98594 9.51245C8.98594 9.51296 8.98594 9.51358 8.98594 9.51421C8.98594 9.51484 8.98594 9.51547 8.98594 9.5161C8.98594 9.5166 8.98594 9.51723 8.98594 9.51785C8.98594 9.51848 8.98594 9.51924 8.98594 9.51986C8.98594 9.52049 8.98594 9.52112 8.98594 9.52175C8.98594 9.52238 8.98594 9.523 8.98594 9.52376C8.98594 9.52439 8.98594 9.52501 8.98594 9.52577C8.98594 9.5264 8.98594 9.52715 8.98594 9.52778C8.98594 9.52841 8.98594 9.52916 8.98594 9.52979C8.98594 9.53054 8.98594 9.53129 8.98594 9.53192C8.98594 9.53268 8.98594 9.53343 8.98594 9.53406C8.98594 9.53481 8.98594 9.53556 8.98594 9.53632C8.98594 9.53695 8.98594 9.5377 8.98594 9.53845C8.98594 9.53921 8.98594 9.53996 8.98594 9.54071C8.98594 9.54147 8.98594 9.54222 8.98594 9.54298C8.98594 9.54373 8.98594 9.54461 8.98594 9.54536C8.98594 9.54612 8.98594 9.54687 8.98594 9.54762C8.98594 9.5485 8.98594 9.54926 8.98594 9.55001C8.98594 9.55089 8.98594 9.55164 8.98594 9.55252C8.98594 9.55327 8.98594 9.55415 8.98594 9.55491C8.98594 9.55579 8.98594 9.55667 8.98594 9.55742C8.98594 9.5583 8.98594 9.55918 8.98594 9.56006C8.98594 9.56081 8.98594 9.56169 8.98594 9.56257C8.98594 9.56345 8.98594 9.56433 8.98594 9.56521C8.98594 9.56609 8.98594 9.56697 8.98594 9.56785C8.98594 9.56872 8.98594 9.5696 8.98594 9.57048C8.98594 9.57149 8.98594 9.57237 8.98594 9.57325C8.98594 9.57425 8.98594 9.57513 8.98594 9.57601C8.98594 9.57701 8.98594 9.57789 8.98594 9.5789C8.98594 9.57978 8.98594 9.58078 8.98594 9.58166C8.98594 9.58267 8.98594 9.58367 8.98594 9.58455C8.98594 9.58556 8.98594 9.58656 8.98594 9.58756C8.98594 9.58857 8.98594 9.58945 8.98594 9.59045C8.98594 9.59146 8.98594 9.59246 8.98594 9.59347C8.98594 9.59447 8.98594 9.5956 8.98594 9.59661C8.98594 9.59761 8.98594 9.59862 8.98594 9.59962C8.98594 9.60075 8.98594 9.60176 8.98594 9.60276C8.98594 9.60389 8.98594 9.6049 8.98594 9.60603C8.98594 9.60703 8.98594 9.60816 8.98594 9.60917C8.98594 9.6103 8.98594 9.61143 8.98594 9.61243C8.98594 9.61356 8.98594 9.61469 8.98594 9.61583C8.98594 9.61683 8.98594 9.61796 8.98594 9.61909C8.98594 9.62022 8.98594 9.62135 8.98594 9.62248C8.98594 9.62361 8.98594 9.62474 8.98594 9.626C8.98594 9.62713 8.98594 9.62826 8.98594 9.62939C8.98594 9.63065 8.98594 9.63178 8.98594 9.63291C8.98594 9.63416 8.98594 9.63529 8.98594 9.63655C8.98594 9.63768 8.98594 9.63894 8.98594 9.64019C8.98594 9.64132 8.98594 9.64258 8.98594 9.64383C8.98594 9.64509 8.98594 9.64622 8.98594 9.64748C8.98594 9.64873 8.98594 9.64999 8.98594 9.65125C8.98594 9.6525 8.98594 9.65376 8.98594 9.65501C8.98594 9.6564 8.98594 9.65765 8.98594 9.65891C8.98594 9.66016 8.98594 9.66155 8.98594 9.6628C8.98594 9.66406 8.98594 9.66544 8.98594 9.6667C8.98594 9.66808 8.98594 9.66933 8.98594 9.67071C8.98594 9.6721 8.98594 9.67335 8.98594 9.67473C8.98594 9.67612 8.98594 9.6775 8.98594 9.67888C8.98594 9.68026 8.98594 9.68164 8.98594 9.68302C8.98594 9.68441 8.98594 9.68579 8.98594 9.68717C8.98594 9.68855 8.98594 9.68993 8.98594 9.69131C8.98594 9.69282 8.98594 9.6942 8.98594 9.69571C8.98594 9.69709 8.98594 9.69847 8.98594 9.69998C8.98594 9.70136 8.98594 9.70287 8.98594 9.70438C8.98594 9.70576 8.98594 9.70727 8.98594 9.70877C8.98594 9.71028 8.98594 9.71179 8.98594 9.71329C8.98594 9.7148 8.98594 9.71631 8.98594 9.71782C8.98594 9.71932 8.98594 9.72083 8.98594 9.72234C8.98594 9.72384 8.98594 9.72535 8.98594 9.72698C8.98594 9.72849 8.98594 9.73012 8.98594 9.73163C8.98594 9.73327 8.98594 9.73477 8.98594 9.7364C8.98594 9.73791 8.98594 9.73955 8.98594 9.74118C8.98594 9.74269 8.98594 9.74432 8.98594 9.74595C8.98594 9.74758 8.98594 9.74922 8.98594 9.75085C8.98594 9.75248 8.98594 9.75412 8.98594 9.75575C8.98594 9.75738 8.98594 9.75914 8.98594 9.76077C8.98594 9.76241 8.98594 9.76416 8.98594 9.7658C8.98594 9.76755 8.98594 9.76919 8.98594 9.77095C8.98594 9.77258 8.98594 9.77434 8.98594 9.7761C8.98594 9.77773 8.98594 9.77949 8.98594 9.78125C8.98594 9.783 8.98594 9.78476 8.98594 9.78652C8.98594 9.78828 8.98594 9.79004 8.98594 9.7918C8.98594 9.79356 8.98594 9.79544 8.98594 9.7972C8.98594 9.79896 8.98594 9.80084 8.98594 9.8026C8.98594 9.80448 8.98594 9.80624 8.98594 9.80812C8.98594 9.80988 8.98594 9.81177 8.98594 9.81365C8.98594 9.81554 8.98594 9.81729 8.98594 9.81918C8.98594 9.82106 8.98594 9.82295 8.98594 9.82483C8.98594 9.82671 8.98594 9.8286 8.98594 9.83061C8.98594 9.83249 8.98594 9.83438 8.98594 9.83626C8.98594 9.83827 8.98594 9.84015 8.98594 9.84216C8.98594 9.84405 8.98594 9.84606 8.98594 9.84794C8.98594 9.84995 8.98594 9.85196 8.98594 9.85397C8.98594 9.85585 8.98594 9.85786 8.98594 9.85987C8.98594 9.86188 8.98594 9.86389 8.98594 9.8659C8.98594 9.86791 8.98594 9.87005 8.98594 9.87206C8.98594 9.87407 8.98594 9.8762 8.98594 9.87821C8.98594 9.88022 8.98594 9.88236 8.98594 9.88449C8.98594 9.8865 8.98594 9.88864 8.98594 9.89077C8.98594 9.89278 8.98594 9.89492 8.98594 9.89705C8.98594 9.89919 8.98594 9.90132 8.98594 9.90346C8.98594 9.90559 8.98594 9.90773 8.98594 9.90986C8.98594 9.91213 8.98594 9.91426 8.98594 9.9164C8.98594 9.91866 8.98594 9.92079 8.98594 9.92305C8.98594 9.92519 8.98594 9.92745 8.98594 9.92958C8.98594 9.93184 8.98594 9.93411 8.98594 9.93637C8.98594 9.93863 8.98594 9.94089 8.98594 9.94315C8.98594 9.94541 8.98594 9.94767 8.98594 9.94993C8.98594 9.95219 8.98594 9.95445 8.98594 9.95684C8.98594 9.9591 8.98594 9.96149 8.98594 9.96375C8.98594 9.96614 8.98594 9.9684 8.98594 9.97078C8.98594 9.97317 8.98594 9.97543 8.98594 9.97782C8.98594 9.9802 8.98594 9.98259 8.98594 9.98498C8.98594 9.98736 8.98594 9.98975 8.98594 9.99226C8.98594 9.99465 8.98594 9.99703 8.98594 9.99942C8.98594 10.0019 8.98594 10.0043 8.98594 10.0068C8.98594 10.0092 8.98594 10.0117 8.98594 10.0142C8.98594 10.0166 8.98594 10.0191 8.98594 10.0217C8.98594 10.0242 8.98594 10.0267 8.98594 10.0292C8.98594 10.0317 8.98594 10.0342 8.98594 10.0367C8.98594 10.0392 8.98594 10.0419 8.98594 10.0444C8.98594 10.047 8.98594 10.0495 8.98594 10.0522C8.98594 10.0547 8.98594 10.0573 8.98594 10.06C8.98594 10.0625 8.98594 10.0651 8.98594 10.0677C8.98594 10.0704 8.98594 10.073 8.98594 10.0757C8.98594 10.0783 8.98594 10.0809 8.98594 10.0837C8.98594 10.0863 8.98594 10.089 8.98594 10.0917C8.98594 10.0944 8.98594 10.0971 8.98594 10.0998C8.98594 10.1025 8.98594 10.1053 8.98594 10.1081C8.98594 10.1107 8.98594 10.1135 8.98594 10.1162C8.98594 10.119 8.98594 10.1218 8.98594 10.1246C8.98594 10.1274 8.98594 10.1302 8.98594 10.1329C8.98594 10.1358 8.98594 10.1386 8.98594 10.1415C8.98594 10.1442 8.98594 10.1471 8.98594 10.15C8.98594 10.1528 8.98594 10.1557 8.98594 10.1586C8.98594 10.1614 8.98594 10.1643 8.98594 10.1672C8.98594 10.1701 8.98594 10.173 8.98594 10.176C8.98594 10.1789 8.98594 10.1818 8.98594 10.1848C8.98594 10.1877 8.98594 10.1907 8.98594 10.1937C8.98594 10.1966 8.98594 10.1996 8.98594 10.2026C8.98594 10.2057 8.98594 10.2087 8.98594 10.2117C8.98594 10.2147 8.98594 10.2177 8.98594 10.2207C8.98594 10.2237 8.98594 10.2269 8.98594 10.2299C8.98594 10.2329 8.98594 10.2361 8.98594 10.2392C8.98594 10.2422 8.98594 10.2454 8.98594 10.2485C8.98594 10.2515 8.98594 10.2546 8.98594 10.2578C8.98594 10.2609 8.98594 10.2641 8.98594 10.2673C8.98594 10.2705 8.98594 10.2736 8.98594 10.2768C8.98594 10.28 8.98594 10.2832 8.98594 10.2864C8.98594 10.2896 8.98594 10.2928 8.98594 10.2961C8.98594 10.2994 8.98594 10.3025 8.98594 10.3058C8.98594 10.309 8.98594 10.3123 8.98594 10.3157C8.98594 10.319 8.98594 10.3222 8.98594 10.3255C8.98594 10.3289 8.98594 10.3321 8.98594 10.3355C8.98594 10.3388 8.98594 10.3422 8.98594 10.3456C8.98594 10.349 8.98594 10.3522 8.98594 10.3556C8.98594 10.359 8.98594 10.3624 8.98594 10.3658C8.98594 10.3693 8.98594 10.3727 8.98594 10.3761C8.98594 10.3796 8.98594 10.383 8.98594 10.3865C8.98594 10.3899 8.98594 10.3934 8.98594 10.397C8.98594 10.4003 8.98594 10.4039 8.98594 10.4074C8.98594 10.4109 8.98594 10.4144 8.98594 10.4179C8.98594 10.4216 8.98594 10.4251 8.98594 10.4286C8.98594 10.4323 8.98594 10.4358 8.98594 10.4394C8.98594 10.4429 8.98594 10.4466 8.98594 10.4502C8.98594 10.4539 8.98594 10.4574 8.98594 10.461C8.98594 10.4647 8.98594 10.4684 8.98594 10.4721C8.98594 10.4757 8.98594 10.4794 8.98594 10.4831C8.98594 10.4868 8.98594 10.4905 8.98594 10.4942C8.98594 10.4979 8.98594 10.5017 8.98594 10.5054C8.98594 10.5091 8.98594 10.5129 8.98594 10.5167C8.98594 10.5204 8.98594 10.5242 8.98594 10.5281C8.98594 10.5319 8.98594 10.5356 8.98594 10.5395C8.98594 10.5433 8.98594 10.5472 8.98594 10.5511C8.98594 10.5548 8.98594 10.5587 8.98594 10.5626C8.98594 10.5665 8.98594 10.5704 8.98594 10.5743C8.98594 10.5782 8.98594 10.5821 8.98594 10.5861C8.98594 10.59 8.98594 10.5939 8.98594 10.5979C8.98594 10.6018 8.98594 10.6058 8.98594 10.6099C8.98594 10.6139 8.98594 10.6179 8.98594 10.6219C8.98594 10.6258 8.98594 10.63 8.98594 10.634C8.98594 10.638 8.98594 10.642 8.98594 10.6462C8.98594 10.6502 8.98594 10.6543 8.98594 10.6583C8.98594 10.6625 8.98594 10.6666 8.98594 10.6708C8.98594 10.6748 8.98594 10.6789 8.98594 10.6831C8.98594 10.6874 8.98594 10.6915 8.98594 10.6956C8.98594 10.6998 8.98594 10.7041 8.98594 10.7082C8.98594 10.7125 8.98594 10.7166 8.98594 10.7209C8.98594 10.7252 8.98594 10.7294 8.98594 10.7337C8.98594 10.738 8.98594 10.7422 8.98594 10.7465C8.98594 10.7508 8.98594 10.7552 8.98594 10.7594C8.98594 10.7637 8.98594 10.7681 8.98594 10.7725C8.98594 10.7768 8.98594 10.7812 8.98594 10.7856C8.98594 10.79 8.98594 10.7944 8.98594 10.7988C8.98594 10.8032 8.98594 10.8076 8.98594 10.8121C8.98594 10.8165 8.98594 10.8209 8.98594 10.8254C8.98594 10.8299 8.98594 10.8343 8.98594 10.8388C8.98594 10.8434 8.98594 10.8479 8.98594 10.8524C8.98594 10.8569 8.98594 10.8614 8.98594 10.866C8.98594 10.8705 8.98594 10.8751 8.98594 10.8797C8.98594 10.8843 8.98594 10.8888 8.98594 10.8935C8.98594 10.8981 8.98594 10.9028 8.98594 10.9074C8.98594 10.9121 8.98594 10.9167 8.98594 10.9214C8.98594 10.926 8.98594 10.9306 8.98594 10.9354C8.98594 10.9401 8.98594 10.9448 8.98594 10.9496C8.98594 10.9543 8.98594 10.959 8.98594 10.9638C8.98594 10.9686 8.98594 10.9734 8.98594 10.9781C8.98594 10.9829 8.98594 10.9877 8.98594 10.9926C8.98594 10.9973 8.98594 11.0022 8.98594 11.007C8.98594 11.0119 8.98594 11.0168 8.98594 11.0217C8.98594 11.0265 8.98594 11.0314 8.98594 11.0364C8.98594 11.0413 8.98594 11.0462 8.98594 11.0511C8.98594 11.0561 8.98594 11.061 8.98594 11.066C8.98594 11.0709 8.98594 11.076 8.98594 11.081C8.98594 11.086 8.98594 11.091 8.98594 11.0961C8.98594 11.1011 8.98594 11.1061 8.98594 11.1111C8.98594 11.1163 8.98594 11.1213 8.98594 11.1265C8.98594 11.1315 8.98594 11.1366 8.98594 11.1418C8.98594 11.1468 8.98594 11.152 8.98594 11.1571C8.98594 11.1624 8.98594 11.1675 8.98594 11.1727C8.98594 11.1778 8.98594 11.1831 8.98594 11.1883C8.98594 11.1935 8.98594 11.1988 8.98594 11.204C8.98594 11.2092 8.98594 11.2145 8.98594 11.2198C8.98594 11.2251 8.98594 11.2303 8.98594 11.2357C8.98594 11.241 8.98594 11.2463 8.98594 11.2517C8.98594 11.2571 8.98594 11.2624 8.98594 11.2678C8.98594 11.2732 8.98594 11.2786 8.98594 11.284C8.98594 11.2894 8.98594 11.2948 8.98594 11.3002C8.98594 11.3057 8.98594 11.3111 8.98594 11.3166C8.98594 11.322 8.98594 11.3276 8.98594 11.3331C8.98594 11.3386 8.98594 11.3441 8.98594 11.3497C8.98594 11.3552 8.98594 11.3607 8.98594 11.3662C8.98594 11.3719 8.98594 11.3774 8.98594 11.3831C8.98594 11.3886 8.98594 11.3943 8.98594 11.3999C8.98594 11.4056 8.98594 11.4112 8.98594 11.4169C8.98594 11.4225 8.98594 11.4282 8.98594 11.4339C8.98594 11.4396 8.98594 11.4454 8.98594 11.451C8.98594 11.4568 8.98594 11.4626 8.98594 11.4682C8.98594 11.474 8.98594 11.4798 8.98594 11.4857C8.98594 11.4915 8.98594 11.4972 8.98594 11.503C8.98594 11.5089 8.98594 11.5147 8.98594 11.5206C8.98594 11.5265 8.98594 11.5324 8.98594 11.5383C8.98594 11.5441 8.98594 11.5501 8.98594 11.556C8.98594 11.5619 8.98594 11.5678 8.98594 11.5739C8.98594 11.5798 8.98594 11.5858 8.98594 11.5918C8.98594 11.5977 8.98594 11.6038 8.98594 11.6098C8.98594 11.6158 8.98594 11.6218 8.98594 11.628C8.98594 11.634 8.98594 11.6401 8.98594 11.6462C8.98594 11.6524 8.98594 11.6584 8.98594 11.6646C8.98594 11.6707 8.98594 11.6769 8.98594 11.683C8.98594 11.6892 8.98594 11.6953 8.98594 11.7016C8.98594 11.7078 8.98594 11.7139 8.98594 11.7202C8.98594 11.7265 8.98594 11.7326 8.98594 11.7389C8.98594 11.7452 8.98594 11.7515 8.98594 11.7577C8.98594 11.7642 8.98594 11.7704 8.98594 11.7767C8.98594 11.7831 8.98594 11.7894 8.98594 11.7958C8.98594 11.8022 8.98594 11.8086 8.98594 11.815C8.98594 11.8214 8.98594 11.8278 8.98594 11.8342C8.98594 11.8406 8.98594 11.8472 8.98594 11.8536C8.98594 11.8601 8.98594 11.8666 8.98594 11.8731C8.98594 11.8796 8.98594 11.8861 8.98594 11.8926C8.98594 11.8992 8.98594 11.9058 8.98594 11.9124C8.98594 11.9189 8.98594 11.9256 8.98594 11.9322C8.98594 11.9387 8.98594 11.9454 8.98594 11.9521C8.98594 11.9587 8.98594 11.9654 8.98594 11.972C8.98594 11.9788 8.98594 11.9855 8.98594 11.9921C8.98594 11.9989 8.98594 12.0057 8.98594 12.0123C8.98594 12.0191 8.98594 12.0259 8.98594 12.0327C8.98594 12.0395 8.98594 12.0464 8.98594 12.0532C8.98594 12.06 8.98594 12.0669 8.98594 12.0736C8.98594 12.0806 8.98594 12.0875 8.98594 12.0944C8.98594 12.1013 8.98594 12.1082 8.98594 12.1151C8.98594 12.122 8.98594 12.129 8.98594 12.1359C8.98594 12.143 8.98594 12.1499 8.98594 12.1569C8.98594 12.164 8.98594 12.171 8.98594 12.178C8.98594 12.1851 8.98594 12.1921 8.98594 12.1992C8.98594 12.2063 8.98594 12.2133 8.98594 12.2205C8.98594 12.2276 8.98594 12.2348 8.98594 12.2418C8.98594 12.249 8.98594 12.2563 8.98594 12.2634C8.98594 12.2706 8.98594 12.2777 8.98594 12.285C8.98594 12.2922 8.98594 12.2995 8.98594 12.3068C8.98594 12.314 8.98594 12.3213 8.98594 12.3286C8.98594 12.3359 8.98594 12.3432 8.98594 12.3506C8.98594 12.3579 8.98594 12.3653 8.98594 12.3726C8.98594 12.38 8.98594 12.3874 8.98594 12.3948C8.98594 12.4022 8.98594 12.4096 8.98594 12.417C8.98594 12.4246 8.98594 12.432 8.98594 12.4395C8.98594 12.4469 8.98594 12.4545 8.98594 12.462C8.98594 12.4695 8.98594 12.4771 8.98594 12.4846C8.98594 12.4922 8.98594 12.4998 8.98594 12.5074C8.98594 12.515 8.98594 12.5225 8.98594 12.5302C8.98594 12.5379 8.98594 12.5455 8.98594 12.5532C8.98594 12.5609 8.98594 12.5686 8.98594 12.5763C8.98594 12.584 8.98594 12.5918 8.98594 12.5995C8.98594 12.6072 8.98594 12.615 8.98594 12.6228C8.98594 12.6306 8.98594 12.6384 8.98594 12.6463C8.98594 12.6541 8.98594 12.6618 8.98594 12.6698C8.98594 12.6777 8.98594 12.6855 8.98594 12.6934C8.98594 12.7013 8.98594 12.7092 8.98594 12.7172C8.98594 12.7251 8.98594 12.7331 8.98594 12.7411C8.98594 12.749 8.98594 12.7571 8.98594 12.7651C8.98594 12.7731 8.98594 12.7812 8.98594 12.7892C8.98594 12.7972 8.98594 12.8053 8.98594 12.8134C8.98594 12.8215 8.98594 12.8297 8.98594 12.8378C8.98594 12.8459 8.98594 12.854 8.98594 12.8623C8.98594 12.8705 8.98594 12.8786 8.98594 12.8868C8.98594 12.8951 8.98594 12.9033 8.98594 12.9115C8.98594 12.9198 8.98594 12.9281 8.98594 12.9364C8.98594 12.9447 8.98594 12.953 8.98594 12.9613C8.98594 12.9696 8.98594 12.978 8.98594 12.9864C8.98594 12.9947 8.98594 13.0031 8.98594 13.0115C8.98594 13.0199 8.98594 13.0284 8.98594 13.0368C8.98594 13.0453 8.98594 13.0537 8.98594 13.0623C8.98594 13.0707 8.98594 13.0792 8.98594 13.0878C8.98594 13.0963 8.98594 13.1048 8.98594 13.1134C8.98594 13.1221 8.98594 13.1306 8.98594 13.1393C8.98594 13.1478 8.98594 13.1565 8.98594 13.1651C8.98594 13.1738 8.98594 13.1825 8.98594 13.1911C8.98594 13.1998 8.98594 13.2085 8.98594 13.2173C8.98594 13.2259 8.98594 13.2347 8.98594 13.2435C8.98594 13.2523 8.98594 13.2611 8.98594 13.2699C8.98594 13.2787 8.98594 13.2875 8.98594 13.2964C8.98594 13.3052 8.98594 13.3141 8.98594 13.323C8.98594 13.3319 8.98594 13.3409 8.98594 13.3498C8.98594 13.3587 8.98594 13.3676 8.98594 13.3767C8.98594 13.3856 8.98594 13.3946 8.98594 13.4037C8.98594 13.4126 8.98594 13.4216 8.98594 13.4308C8.98594 13.4398 8.98594 13.4489 8.98594 13.4579C8.98594 13.4671 8.98594 13.4761 8.98594 13.4853C8.98594 13.4945 8.98594 13.5036 8.98594 13.5128C8.98594 13.522 8.98594 13.5311 8.98594 13.5404C8.98594 13.5496 8.98594 13.5589 8.98594 13.5682C8.98594 13.5774 8.98594 13.5867 8.98594 13.596C8.98594 13.6054 8.98594 13.6147 8.98594 13.624C8.98594 13.6334 8.98594 13.6427 8.98594 13.6521C8.98594 13.6615 8.98594 13.6709 8.98594 13.6804C8.98594 13.6898 8.98594 13.6992 8.98594 13.7088C8.98594 13.7182 8.98594 13.7277 8.98594 13.7373C8.98594 13.7467 8.98594 13.7562 8.98594 13.7658C8.98594 13.7753 8.98594 13.785 8.98594 13.7945C8.98594 13.8042 8.98594 13.8138 8.98594 13.8234C8.98594 13.8331 8.98594 13.8428 8.98594 13.8524C8.98594 13.8621 8.98594 13.8718 8.98594 13.8816C8.98594 13.8913 8.98594 13.9011 8.98594 13.9108C8.98594 13.9205 8.98594 13.9303 8.98594 13.9402C8.98594 13.95 8.98594 13.9598 8.98594 13.9698C8.98594 13.9796 8.98594 13.9895 8.98594 13.9993C8.98594 14.0092 8.98594 14.0191 8.98594 14.029C8.98594 14.0391 8.98594 14.049 8.98594 14.0591C8.98594 14.069 8.98594 14.079 8.98594 14.0891C8.98594 14.099 8.98594 14.1091 8.98594 14.1192C8.98594 14.1293 8.98594 14.1393 8.98594 14.1495C8.98594 14.1595 8.98594 14.1697 8.98594 14.1799C8.98594 14.1901 8.98594 14.2002 8.98594 14.2104C8.98594 14.2206 8.98594 14.2309 8.98594 14.2411C8.98594 14.2514 8.98594 14.2617 8.98594 14.272C8.98594 14.2823 8.98594 14.2926 8.98594 14.3029C8.98594 14.3132 8.98594 14.3236 8.98594 14.3339C8.98594 14.3443 8.98594 14.3547 8.98594 14.3652C8.98594 14.3756 8.98594 14.386 8.98594 14.3964C8.98594 14.407 8.98594 14.4174 8.98594 14.428C8.98594 14.4385 8.98594 14.4491 8.98594 14.4596C8.98594 14.4702 8.98594 14.4807 8.98594 14.4913C8.98594 14.5019 8.98594 14.5125 8.98594 14.5232C8.98594 14.5338 8.98594 14.5445 8.98594 14.5552C8.98594 14.5659 8.98594 14.5766 8.98594 14.5874C8.98594 14.598 8.98594 14.6088 8.98594 14.6196C8.98594 14.6304 8.98594 14.6412 8.98594 14.652C8.98594 14.6628 8.98594 14.6736 8.98594 14.6846C8.98594 14.6954 8.98594 14.7063 8.98594 14.7172C8.98594 14.7282 8.98594 14.7391 8.98594 14.75C8.98594 14.7611 8.98594 14.772 8.98594 14.783C8.98594 14.794 8.98594 14.805 8.98594 14.8161C8.98594 14.8271 8.98594 14.8382 8.98594 14.8494C8.98594 14.8604 8.98594 14.8715 8.98594 14.8826C8.98594 14.8938 8.98594 14.905 8.98594 14.9162C8.98594 14.9274 8.98594 14.9385 8.98594 14.9498C8.98594 14.961 8.98594 14.9723 8.98594 14.9836C8.98594 14.9948 8.98594 15.0061 8.98594 15.0175C8.98594 15.0289 8.98594 15.0402 8.98594 15.0516C8.98594 15.0629 8.98594 15.0743 8.98594 15.0857C8.98594 15.0972 8.98594 15.1086 8.98594 15.12C8.98594 15.1315 8.98594 15.143 8.98594 15.1545C8.98594 15.166 8.98594 15.1776 8.98594 15.1891C8.98594 15.2007 8.98594 15.2122 8.98594 15.2239C8.98594 15.2355 8.98594 15.2471 8.98594 15.2587C8.98594 15.2704 8.98594 15.2821 8.98594 15.2937C8.98594 15.3054 8.98594 15.3172 8.98594 15.3289C8.98594 15.3407 8.98594 15.3524 8.98594 15.3642C8.98594 15.376 8.98594 15.3878 8.98594 15.3996C8.98594 15.4116 8.98594 15.4234 8.98594 15.4353C8.98594 15.4471 8.98594 15.459 8.98594 15.471C8.98594 15.4829 8.98594 15.4948 8.98594 15.5069C8.98594 15.5188 8.98594 15.5309 8.98594 15.5428C8.98594 15.5549 8.98594 15.5669 8.98594 15.579C8.98594 15.5911 8.98594 15.6032 8.98594 15.6153C8.98594 15.6275 8.98594 15.6395 8.98594 15.6517C8.98594 15.6639 8.98594 15.6761 8.98594 15.6884C8.98594 15.7006 8.98594 15.7128 8.98594 15.7251H11.0149C11.0149 15.7128 11.0149 15.7006 11.0149 15.6884C11.0149 15.6761 11.0149 15.6639 11.0149 15.6517C11.0149 15.6395 11.0149 15.6275 11.0149 15.6153C11.0149 15.6032 11.0149 15.5911 11.0149 15.579C11.0149 15.5669 11.0149 15.5549 11.0149 15.5428C11.0149 15.5309 11.0149 15.5188 11.0149 15.5069C11.0149 15.4948 11.0149 15.4829 11.0149 15.471C11.0149 15.459 11.0149 15.4471 11.0149 15.4353C11.0149 15.4234 11.0149 15.4116 11.0149 15.3996C11.0149 15.3878 11.0149 15.376 11.0149 15.3642C11.0149 15.3524 11.0149 15.3407 11.0149 15.3289C11.0149 15.3172 11.0149 15.3054 11.0149 15.2937C11.0149 15.2821 11.0149 15.2704 11.0149 15.2587C11.0149 15.2471 11.0149 15.2355 11.0149 15.2239C11.0149 15.2122 11.0149 15.2007 11.0149 15.1891C11.0149 15.1776 11.0149 15.166 11.0149 15.1545C11.0149 15.143 11.0149 15.1315 11.0149 15.12C11.0149 15.1086 11.0149 15.0972 11.0149 15.0857C11.0149 15.0743 11.0149 15.0629 11.0149 15.0516C11.0149 15.0402 11.0149 15.0289 11.0149 15.0175C11.0149 15.0061 11.0149 14.9948 11.0149 14.9836C11.0149 14.9723 11.0149 14.961 11.0149 14.9498C11.0149 14.9385 11.0149 14.9274 11.0149 14.9162C11.0149 14.905 11.0149 14.8938 11.0149 14.8826C11.0149 14.8715 11.0149 14.8604 11.0149 14.8494C11.0149 14.8382 11.0149 14.8271 11.0149 14.8161C11.0149 14.805 11.0149 14.794 11.0149 14.783C11.0149 14.772 11.0149 14.7611 11.0149 14.75C11.0149 14.7391 11.0149 14.7282 11.0149 14.7172C11.0149 14.7063 11.0149 14.6954 11.0149 14.6846C11.0149 14.6736 11.0149 14.6628 11.0149 14.652C11.0149 14.6412 11.0149 14.6304 11.0149 14.6196C11.0149 14.6088 11.0149 14.598 11.0149 14.5874C11.0149 14.5766 11.0149 14.5659 11.0149 14.5552C11.0149 14.5445 11.0149 14.5338 11.0149 14.5232C11.0149 14.5125 11.0149 14.5019 11.0149 14.4913C11.0149 14.4807 11.0149 14.4702 11.0149 14.4596C11.0149 14.4491 11.0149 14.4385 11.0149 14.428C11.0149 14.4174 11.0149 14.407 11.0149 14.3964C11.0149 14.386 11.0149 14.3756 11.0149 14.3652C11.0149 14.3547 11.0149 14.3443 11.0149 14.3339C11.0149 14.3236 11.0149 14.3132 11.0149 14.3029C11.0149 14.2926 11.0149 14.2823 11.0149 14.272C11.0149 14.2617 11.0149 14.2514 11.0149 14.2411C11.0149 14.2309 11.0149 14.2206 11.0149 14.2104C11.0149 14.2002 11.0149 14.1901 11.0149 14.1799C11.0149 14.1697 11.0149 14.1595 11.0149 14.1495C11.0149 14.1393 11.0149 14.1293 11.0149 14.1192C11.0149 14.1091 11.0149 14.099 11.0149 14.0891C11.0149 14.079 11.0149 14.069 11.0149 14.0591C11.0149 14.049 11.0149 14.0391 11.0149 14.029C11.0149 14.0191 11.0149 14.0092 11.0149 13.9993C11.0149 13.9895 11.0149 13.9796 11.0149 13.9698C11.0149 13.9598 11.0149 13.95 11.0149 13.9402C11.0149 13.9303 11.0149 13.9205 11.0149 13.9108C11.0149 13.9011 11.0149 13.8913 11.0149 13.8816C11.0149 13.8718 11.0149 13.8621 11.0149 13.8524C11.0149 13.8428 11.0149 13.8331 11.0149 13.8234C11.0149 13.8138 11.0149 13.8042 11.0149 13.7945C11.0149 13.785 11.0149 13.7753 11.0149 13.7658C11.0149 13.7562 11.0149 13.7467 11.0149 13.7373C11.0149 13.7277 11.0149 13.7182 11.0149 13.7088C11.0149 13.6992 11.0149 13.6898 11.0149 13.6804C11.0149 13.6709 11.0149 13.6615 11.0149 13.6521C11.0149 13.6427 11.0149 13.6334 11.0149 13.624C11.0149 13.6147 11.0149 13.6054 11.0149 13.596C11.0149 13.5867 11.0149 13.5774 11.0149 13.5682C11.0149 13.5589 11.0149 13.5496 11.0149 13.5404C11.0149 13.5311 11.0149 13.522 11.0149 13.5128C11.0149 13.5036 11.0149 13.4945 11.0149 13.4853C11.0149 13.4761 11.0149 13.4671 11.0149 13.4579C11.0149 13.4489 11.0149 13.4398 11.0149 13.4308C11.0149 13.4216 11.0149 13.4126 11.0149 13.4037C11.0149 13.3946 11.0149 13.3856 11.0149 13.3767C11.0149 13.3676 11.0149 13.3587 11.0149 13.3498C11.0149 13.3409 11.0149 13.3319 11.0149 13.323C11.0149 13.3141 11.0149 13.3052 11.0149 13.2964C11.0149 13.2875 11.0149 13.2787 11.0149 13.2699C11.0149 13.2611 11.0149 13.2523 11.0149 13.2435C11.0149 13.2347 11.0149 13.2259 11.0149 13.2173C11.0149 13.2085 11.0149 13.1998 11.0149 13.1911C11.0149 13.1825 11.0149 13.1738 11.0149 13.1651C11.0149 13.1565 11.0149 13.1478 11.0149 13.1393C11.0149 13.1306 11.0149 13.1221 11.0149 13.1134C11.0149 13.1048 11.0149 13.0963 11.0149 13.0878C11.0149 13.0792 11.0149 13.0707 11.0149 13.0623C11.0149 13.0537 11.0149 13.0453 11.0149 13.0368C11.0149 13.0284 11.0149 13.0199 11.0149 13.0115C11.0149 13.0031 11.0149 12.9947 11.0149 12.9864C11.0149 12.978 11.0149 12.9696 11.0149 12.9613C11.0149 12.953 11.0149 12.9447 11.0149 12.9364C11.0149 12.9281 11.0149 12.9198 11.0149 12.9115C11.0149 12.9033 11.0149 12.8951 11.0149 12.8868C11.0149 12.8786 11.0149 12.8705 11.0149 12.8623C11.0149 12.854 11.0149 12.8459 11.0149 12.8378C11.0149 12.8297 11.0149 12.8215 11.0149 12.8134C11.0149 12.8053 11.0149 12.7972 11.0149 12.7892C11.0149 12.7812 11.0149 12.7731 11.0149 12.7651C11.0149 12.7571 11.0149 12.749 11.0149 12.7411C11.0149 12.7331 11.0149 12.7251 11.0149 12.7172C11.0149 12.7092 11.0149 12.7013 11.0149 12.6934C11.0149 12.6855 11.0149 12.6777 11.0149 12.6698C11.0149 12.6618 11.0149 12.6541 11.0149 12.6463C11.0149 12.6384 11.0149 12.6306 11.0149 12.6228C11.0149 12.615 11.0149 12.6072 11.0149 12.5995C11.0149 12.5918 11.0149 12.584 11.0149 12.5763C11.0149 12.5686 11.0149 12.5609 11.0149 12.5532C11.0149 12.5455 11.0149 12.5379 11.0149 12.5302C11.0149 12.5225 11.0149 12.515 11.0149 12.5074C11.0149 12.4998 11.0149 12.4922 11.0149 12.4846C11.0149 12.4771 11.0149 12.4695 11.0149 12.462C11.0149 12.4545 11.0149 12.4469 11.0149 12.4395C11.0149 12.432 11.0149 12.4246 11.0149 12.417C11.0149 12.4096 11.0149 12.4022 11.0149 12.3948C11.0149 12.3874 11.0149 12.38 11.0149 12.3726C11.0149 12.3653 11.0149 12.3579 11.0149 12.3506C11.0149 12.3432 11.0149 12.3359 11.0149 12.3286C11.0149 12.3213 11.0149 12.314 11.0149 12.3068C11.0149 12.2995 11.0149 12.2922 11.0149 12.285C11.0149 12.2777 11.0149 12.2706 11.0149 12.2634C11.0149 12.2563 11.0149 12.249 11.0149 12.2418C11.0149 12.2348 11.0149 12.2276 11.0149 12.2205C11.0149 12.2133 11.0149 12.2063 11.0149 12.1992C11.0149 12.1921 11.0149 12.1851 11.0149 12.178C11.0149 12.171 11.0149 12.164 11.0149 12.1569C11.0149 12.1499 11.0149 12.143 11.0149 12.1359C11.0149 12.129 11.0149 12.122 11.0149 12.1151C11.0149 12.1082 11.0149 12.1013 11.0149 12.0944C11.0149 12.0875 11.0149 12.0806 11.0149 12.0736C11.0149 12.0669 11.0149 12.06 11.0149 12.0532C11.0149 12.0464 11.0149 12.0395 11.0149 12.0327C11.0149 12.0259 11.0149 12.0191 11.0149 12.0123C11.0149 12.0057 11.0149 11.9989 11.0149 11.9921C11.0149 11.9855 11.0149 11.9788 11.0149 11.972C11.0149 11.9654 11.0149 11.9587 11.0149 11.9521C11.0149 11.9454 11.0149 11.9387 11.0149 11.9322C11.0149 11.9256 11.0149 11.9189 11.0149 11.9124C11.0149 11.9058 11.0149 11.8992 11.0149 11.8926C11.0149 11.8861 11.0149 11.8796 11.0149 11.8731C11.0149 11.8666 11.0149 11.8601 11.0149 11.8536C11.0149 11.8472 11.0149 11.8406 11.0149 11.8342C11.0149 11.8278 11.0149 11.8214 11.0149 11.815C11.0149 11.8086 11.0149 11.8022 11.0149 11.7958C11.0149 11.7894 11.0149 11.7831 11.0149 11.7767C11.0149 11.7704 11.0149 11.7642 11.0149 11.7577C11.0149 11.7515 11.0149 11.7452 11.0149 11.7389C11.0149 11.7326 11.0149 11.7265 11.0149 11.7202C11.0149 11.7139 11.0149 11.7078 11.0149 11.7016C11.0149 11.6953 11.0149 11.6892 11.0149 11.683C11.0149 11.6769 11.0149 11.6707 11.0149 11.6646C11.0149 11.6584 11.0149 11.6524 11.0149 11.6462C11.0149 11.6401 11.0149 11.634 11.0149 11.628C11.0149 11.6218 11.0149 11.6158 11.0149 11.6098C11.0149 11.6038 11.0149 11.5977 11.0149 11.5918C11.0149 11.5858 11.0149 11.5798 11.0149 11.5739C11.0149 11.5678 11.0149 11.5619 11.0149 11.556C11.0149 11.5501 11.0149 11.5441 11.0149 11.5383C11.0149 11.5324 11.0149 11.5265 11.0149 11.5206C11.0149 11.5147 11.0149 11.5089 11.0149 11.503C11.0149 11.4972 11.0149 11.4915 11.0149 11.4857C11.0149 11.4798 11.0149 11.474 11.0149 11.4682C11.0149 11.4626 11.0149 11.4568 11.0149 11.451C11.0149 11.4454 11.0149 11.4396 11.0149 11.4339C11.0149 11.4282 11.0149 11.4225 11.0149 11.4169C11.0149 11.4112 11.0149 11.4056 11.0149 11.3999C11.0149 11.3943 11.0149 11.3886 11.0149 11.3831C11.0149 11.3774 11.0149 11.3719 11.0149 11.3662C11.0149 11.3607 11.0149 11.3552 11.0149 11.3497C11.0149 11.3441 11.0149 11.3386 11.0149 11.3331C11.0149 11.3276 11.0149 11.322 11.0149 11.3166C11.0149 11.3111 11.0149 11.3057 11.0149 11.3002C11.0149 11.2948 11.0149 11.2894 11.0149 11.284C11.0149 11.2786 11.0149 11.2732 11.0149 11.2678C11.0149 11.2624 11.0149 11.2571 11.0149 11.2517C11.0149 11.2463 11.0149 11.241 11.0149 11.2357C11.0149 11.2303 11.0149 11.2251 11.0149 11.2198C11.0149 11.2145 11.0149 11.2092 11.0149 11.204C11.0149 11.1988 11.0149 11.1935 11.0149 11.1883C11.0149 11.1831 11.0149 11.1778 11.0149 11.1727C11.0149 11.1675 11.0149 11.1624 11.0149 11.1571C11.0149 11.152 11.0149 11.1468 11.0149 11.1418C11.0149 11.1366 11.0149 11.1315 11.0149 11.1265C11.0149 11.1213 11.0149 11.1163 11.0149 11.1111C11.0149 11.1061 11.0149 11.1011 11.0149 11.0961C11.0149 11.091 11.0149 11.086 11.0149 11.081C11.0149 11.076 11.0149 11.0709 11.0149 11.066C11.0149 11.061 11.0149 11.0561 11.0149 11.0511C11.0149 11.0462 11.0149 11.0413 11.0149 11.0364C11.0149 11.0314 11.0149 11.0265 11.0149 11.0217C11.0149 11.0168 11.0149 11.0119 11.0149 11.007C11.0149 11.0022 11.0149 10.9973 11.0149 10.9926C11.0149 10.9877 11.0149 10.9829 11.0149 10.9781C11.0149 10.9734 11.0149 10.9686 11.0149 10.9638C11.0149 10.959 11.0149 10.9543 11.0149 10.9496C11.0149 10.9448 11.0149 10.9401 11.0149 10.9354C11.0149 10.9306 11.0149 10.926 11.0149 10.9214C11.0149 10.9167 11.0149 10.9121 11.0149 10.9074C11.0149 10.9028 11.0149 10.8981 11.0149 10.8935C11.0149 10.8888 11.0149 10.8843 11.0149 10.8797C11.0149 10.8751 11.0149 10.8705 11.0149 10.866C11.0149 10.8614 11.0149 10.8569 11.0149 10.8524C11.0149 10.8479 11.0149 10.8434 11.0149 10.8388C11.0149 10.8343 11.0149 10.8299 11.0149 10.8254C11.0149 10.8209 11.0149 10.8165 11.0149 10.8121C11.0149 10.8076 11.0149 10.8032 11.0149 10.7988C11.0149 10.7944 11.0149 10.79 11.0149 10.7856C11.0149 10.7812 11.0149 10.7768 11.0149 10.7725C11.0149 10.7681 11.0149 10.7637 11.0149 10.7594C11.0149 10.7552 11.0149 10.7508 11.0149 10.7465C11.0149 10.7422 11.0149 10.738 11.0149 10.7337C11.0149 10.7294 11.0149 10.7252 11.0149 10.7209C11.0149 10.7166 11.0149 10.7125 11.0149 10.7082C11.0149 10.7041 11.0149 10.6998 11.0149 10.6956C11.0149 10.6915 11.0149 10.6874 11.0149 10.6831C11.0149 10.6789 11.0149 10.6748 11.0149 10.6708C11.0149 10.6666 11.0149 10.6625 11.0149 10.6583C11.0149 10.6543 11.0149 10.6502 11.0149 10.6462C11.0149 10.642 11.0149 10.638 11.0149 10.634C11.0149 10.63 11.0149 10.6258 11.0149 10.6219C11.0149 10.6179 11.0149 10.6139 11.0149 10.6099C11.0149 10.6058 11.0149 10.6018 11.0149 10.5979C11.0149 10.5939 11.0149 10.59 11.0149 10.5861C11.0149 10.5821 11.0149 10.5782 11.0149 10.5743C11.0149 10.5704 11.0149 10.5665 11.0149 10.5626C11.0149 10.5587 11.0149 10.5548 11.0149 10.5511C11.0149 10.5472 11.0149 10.5433 11.0149 10.5395C11.0149 10.5356 11.0149 10.5319 11.0149 10.5281C11.0149 10.5242 11.0149 10.5204 11.0149 10.5167C11.0149 10.5129 11.0149 10.5091 11.0149 10.5054C11.0149 10.5017 11.0149 10.4979 11.0149 10.4942C11.0149 10.4905 11.0149 10.4868 11.0149 10.4831C11.0149 10.4794 11.0149 10.4757 11.0149 10.4721C11.0149 10.4684 11.0149 10.4647 11.0149 10.461C11.0149 10.4574 11.0149 10.4539 11.0149 10.4502C11.0149 10.4466 11.0149 10.4429 11.0149 10.4394C11.0149 10.4358 11.0149 10.4323 11.0149 10.4286C11.0149 10.4251 11.0149 10.4216 11.0149 10.4179C11.0149 10.4144 11.0149 10.4109 11.0149 10.4074C11.0149 10.4039 11.0149 10.4003 11.0149 10.397C11.0149 10.3934 11.0149 10.3899 11.0149 10.3865C11.0149 10.383 11.0149 10.3796 11.0149 10.3761C11.0149 10.3727 11.0149 10.3693 11.0149 10.3658C11.0149 10.3624 11.0149 10.359 11.0149 10.3556C11.0149 10.3522 11.0149 10.349 11.0149 10.3456C11.0149 10.3422 11.0149 10.3388 11.0149 10.3355C11.0149 10.3321 11.0149 10.3289 11.0149 10.3255C11.0149 10.3222 11.0149 10.319 11.0149 10.3157C11.0149 10.3123 11.0149 10.309 11.0149 10.3058C11.0149 10.3025 11.0149 10.2994 11.0149 10.2961C11.0149 10.2928 11.0149 10.2896 11.0149 10.2864C11.0149 10.2832 11.0149 10.28 11.0149 10.2768C11.0149 10.2736 11.0149 10.2705 11.0149 10.2673C11.0149 10.2641 11.0149 10.2609 11.0149 10.2578C11.0149 10.2546 11.0149 10.2515 11.0149 10.2485C11.0149 10.2454 11.0149 10.2422 11.0149 10.2392C11.0149 10.2361 11.0149 10.2329 11.0149 10.2299C11.0149 10.2269 11.0149 10.2237 11.0149 10.2207C11.0149 10.2177 11.0149 10.2147 11.0149 10.2117C11.0149 10.2087 11.0149 10.2057 11.0149 10.2026C11.0149 10.1996 11.0149 10.1966 11.0149 10.1937C11.0149 10.1907 11.0149 10.1877 11.0149 10.1848C11.0149 10.1818 11.0149 10.1789 11.0149 10.176C11.0149 10.173 11.0149 10.1701 11.0149 10.1672C11.0149 10.1643 11.0149 10.1614 11.0149 10.1586C11.0149 10.1557 11.0149 10.1528 11.0149 10.15C11.0149 10.1471 11.0149 10.1442 11.0149 10.1415C11.0149 10.1386 11.0149 10.1358 11.0149 10.1329C11.0149 10.1302 11.0149 10.1274 11.0149 10.1246C11.0149 10.1218 11.0149 10.119 11.0149 10.1162C11.0149 10.1135 11.0149 10.1107 11.0149 10.1081C11.0149 10.1053 11.0149 10.1025 11.0149 10.0998C11.0149 10.0971 11.0149 10.0944 11.0149 10.0917C11.0149 10.089 11.0149 10.0863 11.0149 10.0837C11.0149 10.0809 11.0149 10.0783 11.0149 10.0757C11.0149 10.073 11.0149 10.0704 11.0149 10.0677C11.0149 10.0651 11.0149 10.0625 11.0149 10.06C11.0149 10.0573 11.0149 10.0547 11.0149 10.0522C11.0149 10.0495 11.0149 10.047 11.0149 10.0444C11.0149 10.0419 11.0149 10.0392 11.0149 10.0367C11.0149 10.0342 11.0149 10.0317 11.0149 10.0292C11.0149 10.0267 11.0149 10.0242 11.0149 10.0217C11.0149 10.0191 11.0149 10.0166 11.0149 10.0142C11.0149 10.0117 11.0149 10.0092 11.0149 10.0068C11.0149 10.0043 11.0149 10.0019 11.0149 9.99942C11.0149 9.99703 11.0149 9.99465 11.0149 9.99226C11.0149 9.98975 11.0149 9.98736 11.0149 9.98498C11.0149 9.98259 11.0149 9.9802 11.0149 9.97782C11.0149 9.97543 11.0149 9.97317 11.0149 9.97078C11.0149 9.9684 11.0149 9.96614 11.0149 9.96375C11.0149 9.96149 11.0149 9.9591 11.0149 9.95684C11.0149 9.95445 11.0149 9.95219 11.0149 9.94993C11.0149 9.94767 11.0149 9.94541 11.0149 9.94315C11.0149 9.94089 11.0149 9.93863 11.0149 9.93637C11.0149 9.93411 11.0149 9.93184 11.0149 9.92958C11.0149 9.92745 11.0149 9.92519 11.0149 9.92305C11.0149 9.92079 11.0149 9.91866 11.0149 9.9164C11.0149 9.91426 11.0149 9.91213 11.0149 9.90986C11.0149 9.90773 11.0149 9.90559 11.0149 9.90346C11.0149 9.90132 11.0149 9.89919 11.0149 9.89705C11.0149 9.89492 11.0149 9.89278 11.0149 9.89077C11.0149 9.88864 11.0149 9.8865 11.0149 9.88449C11.0149 9.88236 11.0149 9.88022 11.0149 9.87821C11.0149 9.8762 11.0149 9.87407 11.0149 9.87206C11.0149 9.87005 11.0149 9.86791 11.0149 9.8659C11.0149 9.86389 11.0149 9.86188 11.0149 9.85987C11.0149 9.85786 11.0149 9.85585 11.0149 9.85397C11.0149 9.85196 11.0149 9.84995 11.0149 9.84794C11.0149 9.84606 11.0149 9.84405 11.0149 9.84216C11.0149 9.84015 11.0149 9.83827 11.0149 9.83626C11.0149 9.83438 11.0149 9.83249 11.0149 9.83061C11.0149 9.8286 11.0149 9.82671 11.0149 9.82483C11.0149 9.82295 11.0149 9.82106 11.0149 9.81918C11.0149 9.81729 11.0149 9.81554 11.0149 9.81365C11.0149 9.81177 11.0149 9.80988 11.0149 9.80812C11.0149 9.80624 11.0149 9.80448 11.0149 9.8026C11.0149 9.80084 11.0149 9.79896 11.0149 9.7972C11.0149 9.79544 11.0149 9.79356 11.0149 9.7918C11.0149 9.79004 11.0149 9.78828 11.0149 9.78652C11.0149 9.78476 11.0149 9.783 11.0149 9.78125C11.0149 9.77949 11.0149 9.77773 11.0149 9.7761C11.0149 9.77434 11.0149 9.77258 11.0149 9.77095C11.0149 9.76919 11.0149 9.76755 11.0149 9.7658C11.0149 9.76416 11.0149 9.76241 11.0149 9.76077C11.0149 9.75914 11.0149 9.75738 11.0149 9.75575C11.0149 9.75412 11.0149 9.75248 11.0149 9.75085C11.0149 9.74922 11.0149 9.74758 11.0149 9.74595C11.0149 9.74432 11.0149 9.74269 11.0149 9.74118C11.0149 9.73955 11.0149 9.73791 11.0149 9.7364C11.0149 9.73477 11.0149 9.73327 11.0149 9.73163C11.0149 9.73012 11.0149 9.72849 11.0149 9.72698C11.0149 9.72535 11.0149 9.72384 11.0149 9.72234C11.0149 9.72083 11.0149 9.71932 11.0149 9.71782C11.0149 9.71631 11.0149 9.7148 11.0149 9.71329C11.0149 9.71179 11.0149 9.71028 11.0149 9.70877C11.0149 9.70727 11.0149 9.70576 11.0149 9.70438C11.0149 9.70287 11.0149 9.70136 11.0149 9.69998C11.0149 9.69847 11.0149 9.69709 11.0149 9.69571C11.0149 9.6942 11.0149 9.69282 11.0149 9.69131C11.0149 9.68993 11.0149 9.68855 11.0149 9.68717C11.0149 9.68579 11.0149 9.68441 11.0149 9.68302C11.0149 9.68164 11.0149 9.68026 11.0149 9.67888C11.0149 9.6775 11.0149 9.67612 11.0149 9.67473C11.0149 9.67335 11.0149 9.6721 11.0149 9.67071C11.0149 9.66933 11.0149 9.66808 11.0149 9.6667C11.0149 9.66544 11.0149 9.66406 11.0149 9.6628C11.0149 9.66155 11.0149 9.66016 11.0149 9.65891C11.0149 9.65765 11.0149 9.6564 11.0149 9.65501C11.0149 9.65376 11.0149 9.6525 11.0149 9.65125C11.0149 9.64999 11.0149 9.64873 11.0149 9.64748C11.0149 9.64622 11.0149 9.64509 11.0149 9.64383C11.0149 9.64258 11.0149 9.64132 11.0149 9.64019C11.0149 9.63894 11.0149 9.63768 11.0149 9.63655C11.0149 9.63529 11.0149 9.63416 11.0149 9.63291C11.0149 9.63178 11.0149 9.63065 11.0149 9.62939C11.0149 9.62826 11.0149 9.62713 11.0149 9.626C11.0149 9.62474 11.0149 9.62361 11.0149 9.62248C11.0149 9.62135 11.0149 9.62022 11.0149 9.61909C11.0149 9.61796 11.0149 9.61683 11.0149 9.61583C11.0149 9.61469 11.0149 9.61356 11.0149 9.61243C11.0149 9.61143 11.0149 9.6103 11.0149 9.60917C11.0149 9.60816 11.0149 9.60703 11.0149 9.60603C11.0149 9.6049 11.0149 9.60389 11.0149 9.60276C11.0149 9.60176 11.0149 9.60075 11.0149 9.59962C11.0149 9.59862 11.0149 9.59761 11.0149 9.59661C11.0149 9.5956 11.0149 9.59447 11.0149 9.59347C11.0149 9.59246 11.0149 9.59146 11.0149 9.59045C11.0149 9.58945 11.0149 9.58857 11.0149 9.58756C11.0149 9.58656 11.0149 9.58556 11.0149 9.58455C11.0149 9.58367 11.0149 9.58267 11.0149 9.58166C11.0149 9.58078 11.0149 9.57978 11.0149 9.5789C11.0149 9.57789 11.0149 9.57701 11.0149 9.57601C11.0149 9.57513 11.0149 9.57425 11.0149 9.57325C11.0149 9.57237 11.0149 9.57149 11.0149 9.57048C11.0149 9.5696 11.0149 9.56872 11.0149 9.56785C11.0149 9.56697 11.0149 9.56609 11.0149 9.56521C11.0149 9.56433 11.0149 9.56345 11.0149 9.56257C11.0149 9.56169 11.0149 9.56081 11.0149 9.56006C11.0149 9.55918 11.0149 9.5583 11.0149 9.55742C11.0149 9.55667 11.0149 9.55579 11.0149 9.55491C11.0149 9.55415 11.0149 9.55327 11.0149 9.55252C11.0149 9.55164 11.0149 9.55089 11.0149 9.55001C11.0149 9.54926 11.0149 9.5485 11.0149 9.54762C11.0149 9.54687 11.0149 9.54612 11.0149 9.54536C11.0149 9.54461 11.0149 9.54373 11.0149 9.54298C11.0149 9.54222 11.0149 9.54147 11.0149 9.54071C11.0149 9.53996 11.0149 9.53921 11.0149 9.53845C11.0149 9.5377 11.0149 9.53695 11.0149 9.53632C11.0149 9.53556 11.0149 9.53481 11.0149 9.53406C11.0149 9.53343 11.0149 9.53268 11.0149 9.53192C11.0149 9.53129 11.0149 9.53054 11.0149 9.52979C11.0149 9.52916 11.0149 9.52841 11.0149 9.52778C11.0149 9.52715 11.0149 9.5264 11.0149 9.52577C11.0149 9.52501 11.0149 9.52439 11.0149 9.52376C11.0149 9.523 11.0149 9.52238 11.0149 9.52175C11.0149 9.52112 11.0149 9.52049 11.0149 9.51986C11.0149 9.51924 11.0149 9.51848 11.0149 9.51785C11.0149 9.51723 11.0149 9.5166 11.0149 9.5161C11.0149 9.51547 11.0149 9.51484 11.0149 9.51421C11.0149 9.51358 11.0149 9.51296 11.0149 9.51245C11.0149 9.51183 11.0149 9.5112 11.0149 9.51057C11.0149 9.51007 11.0149 9.50944 11.0149 9.50881C11.0149 9.50831 11.0149 9.50768 11.0149 9.50718C11.0149 9.50655 11.0149 9.50605 11.0149 9.50542C11.0149 9.50492 11.0149 9.50441 11.0149 9.50379C11.0149 9.50328 11.0149 9.50278 11.0149 9.50215C11.0149 9.50165 11.0149 9.50115 11.0149 9.50065C11.0149 9.50014 11.0149 9.49952 11.0149 9.49901C11.0149 9.49851 11.0149 9.49801 11.0149 9.49751C11.0149 9.497 11.0149 9.4965 11.0149 9.496C11.0149 9.4955 11.0149 9.49499 11.0149 9.49449C11.0149 9.49399 11.0149 9.49361 11.0149 9.49311C11.0149 9.49261 11.0149 9.49211 11.0149 9.49173C11.0149 9.49123 11.0149 9.49072 11.0149 9.49022C11.0149 9.48985 11.0149 9.48934 11.0149 9.48897C11.0149 9.48846 11.0149 9.48809 11.0149 9.48758C11.0149 9.48708 11.0149 9.4867 11.0149 9.48633C11.0149 9.48583 11.0149 9.48545 11.0149 9.48495C11.0149 9.48457 11.0149 9.48419 11.0149 9.48369C11.0149 9.48331 11.0149 9.48407 11.0149 9.48369C11.0149 9.48319 11.0149 9.48168 11.0149 9.4813C11.0149 9.48093 11.0149 9.48168 11.0149 9.4813C11.0149 9.48093 11.0149 9.47942 11.0149 9.47904C11.0149 9.47867 11.0149 9.47942 11.0149 9.47904C11.0149 9.47867 11.0149 9.47716 11.0149 9.47678C11.0149 9.47641 11.0149 9.47716 11.0149 9.47678C11.0149 9.47641 11.0149 9.47502 11.0149 9.47465C11.0149 9.47427 11.0149 9.4749 11.0149 9.47465C11.0149 9.47427 11.0149 9.47289 11.0149 9.47264C11.0149 9.47226 11.0149 9.47301 11.0149 9.47264C11.0149 9.47226 11.0149 9.471 11.0149 9.47063C11.0149 9.47038 11.0149 9.47088 11.0149 9.47063C11.0149 9.47038 11.0149 9.46912 11.0149 9.46887C11.0149 9.46849 11.0149 9.46912 11.0149 9.46887C11.0149 9.46849 11.0149 9.46736 11.0149 9.46711C11.0149 9.46686 11.0149 9.46736 11.0149 9.46711C11.0149 9.46686 11.0149 9.46573 11.0149 9.46548C11.0149 9.4651 11.0149 9.46573 11.0149 9.46548C11.0149 9.46523 11.0149 9.4641 11.0149 9.46384C11.0149 9.46359 11.0149 9.4641 11.0149 9.46384C11.0149 9.46359 11.0149 9.46259 11.0149 9.46234C11.0149 9.46209 11.0149 9.46259 11.0149 9.46234C11.0149 9.46209 11.0149 9.46121 11.0149 9.46096C11.0149 9.4607 11.0149 9.46121 11.0149 9.46096C11.0149 9.46083 11.0149 9.45983 11.0149 9.45957C11.0149 9.45932 11.0149 9.45794 11.0149 9.45769C11.0149 9.45756 11.0149 9.45618 11.0149 9.45606C11.0149 9.45593 11.0149 9.45468 11.0149 9.45455C11.0149 9.45442 11.0149 9.45329 11.0149 9.45304C11.0149 9.45292 11.0149 9.45204 11.0149 9.45179C11.0149 9.45166 11.0149 9.45053 11.0149 9.45041C11.0149 9.45028 11.0149 9.45053 11.0149 9.45041C11.0149 9.45028 11.0149 9.44927 11.0149 9.44915C11.0149 9.44902 11.0149 9.44777 11.0149 9.44764C11.0149 9.44764 11.0149 9.44651 11.0149 9.44639C11.0149 9.44626 11.0149 9.44488 11.0149 9.44488H10.0004ZM11.0149 9.44488V3.16469H8.98594V9.44488H11.0149Z" fill="#323232"/>
</g>
</svg>
