<svg width="35" height="35" viewBox="0 0 35 35" fill="none" xmlns="http://www.w3.org/2000/svg">
<g id="Group 172">
<g id="Mask group">
<mask id="mask0_218_2530" style="mask-type:alpha" maskUnits="userSpaceOnUse" x="0" y="0" width="35" height="35">
<rect id="Rectangle 55" width="35" height="35" fill="#D9D9D9"/>
</mask>
<g mask="url(#mask0_218_2530)">
<g id="Group 115">
<path id="Vector" opacity="0.4" d="M17.585 33.17C25.64 33.17 32.17 26.64 32.17 18.585C32.17 10.5299 25.64 4 17.585 4C9.52992 4 3 10.5299 3 18.585C3 26.64 9.52992 33.17 17.585 33.17Z" fill="#ACACAC"/>
</g>
</g>
</g>
<path id="Vector_2" d="M14.7001 20.9059C14.6897 21.1077 14.6897 21.31 14.7001 21.5118C14.7142 21.6347 14.7718 21.7483 14.8623 21.8318C14.9528 21.9153 15.0701 21.9631 15.1927 21.9663C15.2783 21.9739 15.364 21.9663 15.4496 21.9663H23.7102C23.817 21.9633 23.9239 21.9724 24.0286 21.9936C24.1302 22.0194 24.22 22.0795 24.2831 22.1638C24.3461 22.2481 24.3788 22.3516 24.3756 22.4572C24.3778 22.5633 24.3431 22.6668 24.2776 22.7498C24.212 22.8329 24.1197 22.8901 24.0166 22.9117C23.8379 22.945 23.6517 22.945 23.4549 22.9617C23.6427 23.7313 23.4654 24.3721 22.7775 24.7797C22.5362 24.9356 22.2528 25.012 21.9666 24.9985C21.6803 24.9849 21.4053 24.882 21.1795 24.7039C20.5908 24.2752 20.439 23.6737 20.6268 22.9586H17.7355C17.9353 23.7312 17.7355 24.3645 17.0597 24.7765C16.8253 24.9297 16.5502 25.0071 16.2712 24.9985C15.9921 24.9898 15.7222 24.8955 15.4977 24.7282C14.8624 24.2888 14.7151 23.6676 14.9164 22.9404C14.745 22.8657 14.5785 22.7803 14.4178 22.6845C14.2087 22.5496 14.0372 22.3629 13.92 22.1422C13.8027 21.9216 13.7435 21.6743 13.7479 21.424C13.7479 21.2725 13.7479 21.1074 13.7479 20.9483C13.7596 20.6143 13.6985 20.2817 13.5691 19.9741C13.3874 19.5439 13.3318 19.0576 13.2402 18.591C12.7746 16.2155 12.3135 13.8387 11.8569 11.4602C11.8284 11.3087 11.7804 11.2253 11.6107 11.198C11.2097 11.1329 10.8116 11.0466 10.4091 10.9557C10.3451 10.9465 10.2835 10.9243 10.2283 10.8903C10.173 10.8563 10.1252 10.8113 10.0878 10.758C10.0503 10.7048 10.0241 10.6445 10.0105 10.5806C9.997 10.5168 9.9965 10.4508 10.0091 10.3868C10.0216 10.3228 10.047 10.2621 10.0837 10.2083C10.1203 10.1545 10.1674 10.1087 10.2221 10.0739C10.2768 10.0391 10.338 10.016 10.4019 10.0059C10.4658 9.99571 10.5312 9.99876 10.5939 10.0149C11.1481 10.1225 11.7007 10.236 12.2549 10.3451C12.366 10.3595 12.4692 10.4107 12.5481 10.4908C12.627 10.571 12.6771 10.6754 12.6906 10.7875C12.7717 11.2132 12.8648 11.6344 12.9384 12.0601C12.9654 12.2116 13.027 12.2706 13.1877 12.2691C14.1249 12.2691 15.0621 12.2691 15.9993 12.2691C18.7959 12.2691 21.5925 12.2691 24.3891 12.2691C24.6656 12.2529 24.9412 12.3128 25.1865 12.4425C25.4318 12.5722 25.6374 12.7667 25.7814 13.0053C25.9849 13.3429 26.0496 13.7475 25.9617 14.1325C25.5892 15.9838 25.2132 17.834 24.8337 19.6832C24.7738 20.0142 24.6038 20.3148 24.3518 20.5351C24.0997 20.7555 23.7807 20.8824 23.4474 20.8952C23.3618 20.8952 23.2762 20.8952 23.1891 20.8952H14.7046L14.7001 20.9059ZM19.6565 17.1609C20.0515 17.1609 20.4075 17.1609 20.7649 17.1609C20.8876 17.1629 21.0061 17.1156 21.0942 17.0296C21.1824 16.9435 21.233 16.8256 21.235 16.7019C21.237 16.5781 21.1902 16.4586 21.1049 16.3697C21.0195 16.2808 20.9027 16.2297 20.78 16.2277C20.6733 16.2171 20.5652 16.2277 20.4585 16.2277H19.655C19.655 15.849 19.6625 15.5035 19.655 15.1672C19.6445 14.7733 19.2961 14.5476 18.9746 14.7127C18.8912 14.7563 18.8224 14.8239 18.7772 14.907C18.732 14.9901 18.7124 15.0849 18.7208 15.1794C18.7208 15.5233 18.7208 15.8671 18.7208 16.2307H18.461C18.1891 16.2307 17.9173 16.2307 17.6454 16.2307C17.5824 16.2259 17.5191 16.2348 17.4596 16.2564C17.4001 16.278 17.3458 16.312 17.3001 16.3561C17.2545 16.4003 17.2187 16.4536 17.1948 16.5126C17.171 16.5717 17.1598 16.6352 17.1618 16.6989C17.1618 16.7622 17.1744 16.8248 17.1989 16.8831C17.2234 16.9414 17.2593 16.994 17.3044 17.038C17.3495 17.082 17.403 17.1164 17.4616 17.139C17.5202 17.1617 17.5827 17.1722 17.6454 17.17C17.7521 17.17 17.8602 17.17 17.9668 17.17H18.7178C18.7178 17.5532 18.7178 17.8986 18.7178 18.244C18.7126 18.3129 18.7225 18.3822 18.7467 18.4469C18.771 18.5115 18.809 18.57 18.8582 18.6182C18.9073 18.6663 18.9664 18.7029 19.0312 18.7254C19.096 18.748 19.1649 18.7558 19.233 18.7485C19.3553 18.734 19.4674 18.6724 19.5455 18.5763C19.6236 18.4803 19.6618 18.3574 19.652 18.2335C19.6625 17.8805 19.6595 17.5366 19.6595 17.1609H19.6565Z" fill="white"/>
</g>
</svg>
