<svg width="63" height="63" viewBox="0 0 63 63" fill="none" xmlns="http://www.w3.org/2000/svg">
<g id="Group 258">
<path id="Vector" d="M22.1513 39.6864C20.1758 37.4593 19.1082 34.5744 19.1587 31.6004C19.2092 28.6264 20.3741 25.7791 22.4239 23.62C24.3279 21.5972 26.889 20.3143 29.6519 19.999C32.4147 19.6838 35.2001 20.3564 37.5123 21.8983C39.9505 23.4683 41.7062 25.8982 42.4285 28.703C43.4649 32.5682 42.6191 36.0795 40.2532 39.305C43.0444 41.3125 45.4045 43.8577 47.1942 46.7902C48.9923 49.6911 50.2253 52.9048 50.8283 56.2624C54.8354 53.1548 58.0307 49.1268 60.1426 44.5215C62.2545 39.9162 63.2202 34.8701 62.9577 29.8121C62.6952 24.7542 61.2122 19.8345 58.6348 15.4716C56.0575 11.1087 52.4623 7.43188 48.155 4.75403C43.8476 2.07619 38.9558 0.476185 33.8959 0.0910206C28.8359 -0.294144 23.7575 0.546895 19.0931 2.54181C14.4287 4.53672 10.3163 7.62653 7.10584 11.5489C3.89536 15.4712 1.68199 20.1097 0.653939 25.0694C-2.16876 38.9171 4.66954 50.8395 12.1422 56.2153C12.6992 52.9692 13.8751 49.86 15.6058 47.056C17.3108 44.2156 19.5304 41.7165 22.1513 39.6864ZM31.8261 62.9995C36.611 62.9939 41.3265 61.8559 45.5852 59.6788C47.4943 58.7125 47.3716 59.202 46.9898 57.0313C46.5045 54.1053 45.4459 51.3039 43.8747 48.7865C42.3035 46.2691 40.2504 44.0853 37.8329 42.3605C37.6704 42.2147 37.4631 42.1283 37.245 42.1159C37.0269 42.1036 36.8111 42.1663 36.6331 42.2927C35.0118 43.1974 33.1922 43.6901 31.3351 43.7281C29.478 43.766 27.6402 43.3476 25.9831 42.51C25.8161 42.409 25.6205 42.3654 25.4262 42.3851C25.2318 42.4047 25.0492 42.4866 24.9058 42.619C22.2024 44.6362 19.9848 47.2309 18.415 50.2132C17.0936 52.5898 16.2636 55.2066 15.974 57.9092C15.9177 58.2064 15.9702 58.5142 16.1215 58.7764C16.2729 59.0385 16.5131 59.2381 16.799 59.3386C21.4374 61.7674 26.6018 63.0243 31.8398 62.9995H31.8261ZM23.0785 31.8403C23.0785 33.4087 23.5445 34.9418 24.4171 36.2461C25.2898 37.5505 26.5298 38.5676 27.9813 39.1687C29.4328 39.7699 31.0303 39.9284 32.5719 39.6239C34.1134 39.3194 35.5301 38.5658 36.6428 37.4582C37.7554 36.3506 38.514 34.9384 38.823 33.4006C39.1321 31.8628 38.9775 30.2682 38.3789 28.818C37.7803 27.3678 36.7646 26.1271 35.4599 25.2528C34.1553 24.3785 32.6203 23.9098 31.0488 23.9058C30.0042 23.9049 28.9699 24.1095 28.0046 24.5079C27.0393 24.9062 26.1621 25.4908 25.4232 26.2277C24.6842 26.9645 24.098 27.839 23.698 28.8021C23.2981 29.7651 23.0921 30.7978 23.0921 31.8403H23.0785Z" fill="white"/>
<path id="Vector_2" d="M22.1514 39.6867C19.5325 41.7108 17.313 44.2026 15.6059 47.0357C13.8752 49.8396 12.6993 52.9489 12.1423 56.1949C4.64237 50.8191 -2.17547 38.8968 0.654044 25.049C1.69162 20.1022 3.90993 15.4788 7.12059 11.5704C10.3313 7.66196 14.4393 4.58446 19.0962 2.59922C23.7532 0.613979 28.8213 -0.220291 33.8703 0.167035C38.9194 0.554362 43.8005 2.15185 48.0988 4.82406C52.3971 7.49628 55.9859 11.1642 58.5603 15.5164C61.1348 19.8686 62.619 24.7767 62.8869 29.8237C63.1548 34.8707 62.1984 39.9072 60.0991 44.5065C57.9998 49.1059 54.8197 53.1322 50.8284 56.2428C50.2254 52.8852 48.9924 49.6715 47.1943 46.7706C45.4046 43.838 43.0445 41.2929 40.2533 39.2853C42.6192 36.0598 43.465 32.5485 42.4286 28.6834C41.7063 25.8785 39.9506 23.4486 37.5124 21.8786C35.2002 20.3368 32.4148 19.6634 29.652 19.9787C26.8891 20.2939 24.328 21.5768 22.424 23.5997C20.3684 25.7598 19.1997 28.6113 19.1492 31.59C19.0987 34.5688 20.1701 37.4584 22.1514 39.6867Z" fill="black"/>
<path id="Vector_3" d="M31.8399 62.9996C26.5961 63.0226 21.4268 61.7605 16.7855 59.3248C16.4995 59.2243 16.2593 59.0254 16.108 58.7632C15.9567 58.5011 15.9042 58.1933 15.9605 57.896C16.25 55.1935 17.0801 52.576 18.4015 50.1994C19.9713 47.2171 22.1889 44.6231 24.8923 42.6059C25.0357 42.4735 25.2183 42.3909 25.4127 42.3713C25.607 42.3516 25.8025 42.3959 25.9696 42.4969C27.6267 43.3345 29.4645 43.7529 31.3216 43.715C33.1787 43.677 34.9983 43.1836 36.6196 42.2789C36.7976 42.1525 37.0134 42.0904 37.2315 42.1028C37.4496 42.1152 37.6569 42.2016 37.8194 42.3474C40.2434 44.0712 42.3025 46.2554 43.8785 48.7754C45.4545 51.2953 46.5166 54.1009 47.0036 57.0315C47.3854 59.2022 47.5081 58.7127 45.599 59.679C41.3402 61.8561 36.6248 62.994 31.8399 62.9996Z" fill="black"/>
<path id="Vector_4" d="M23.0919 31.8402C23.1027 30.2715 23.5793 28.7415 24.4612 27.443C25.3431 26.1445 26.5908 25.1359 28.0467 24.545C29.5027 23.954 31.1017 23.8067 32.6413 24.1223C34.1809 24.4379 35.5922 25.2021 36.6969 26.3179C37.8016 27.4338 38.5501 28.8512 38.8478 30.3915C39.1455 31.9318 38.979 33.5255 38.3694 34.9715C37.7599 36.4174 36.7346 37.6509 35.4231 38.5154C34.1116 39.3799 32.5727 39.8372 31.001 39.8292C29.9561 39.8229 28.9228 39.6114 27.9598 39.2065C26.9969 38.8016 26.1231 38.2113 25.3887 37.4694C24.6543 36.7276 24.0736 35.8489 23.6795 34.8831C23.2855 33.9172 23.0857 32.883 23.0919 31.8402Z" fill="black"/>
</g>
</svg>
