<svg width="35" height="35" viewBox="0 0 35 35" fill="none" xmlns="http://www.w3.org/2000/svg">
<g id="heart-circle-svgrepo-com 7">
<path id="Vector" opacity="0.4" d="M17.5 32.0834C25.5541 32.0834 32.0833 25.5542 32.0833 17.5001C32.0833 9.44592 25.5541 2.91675 17.5 2.91675C9.44583 2.91675 2.91666 9.44592 2.91666 17.5001C2.91666 25.5542 9.44583 32.0834 17.5 32.0834Z" fill="#ACACAC"/>
<path id="Vector_2" d="M17.9807 24.7915C17.7182 24.879 17.2661 24.879 17.0036 24.7915C14.7286 24.0185 9.62442 20.7665 9.62442 15.254C9.62442 12.8186 11.5786 10.8499 13.9994 10.8499C15.4286 10.8499 16.6973 11.5353 17.4994 12.6144C18.2869 11.5498 19.5702 10.8499 20.9994 10.8499C23.4202 10.8499 25.3744 12.8186 25.3744 15.254C25.3744 20.7665 20.2702 24.0185 17.9807 24.7915Z" fill="white"/>
</g>
</svg>
