<svg width="60" height="60" viewBox="0 0 60 60" fill="none" xmlns="http://www.w3.org/2000/svg">
<path d="M58.2856 45.4284C58.2856 52.5292 52.5292 58.2856 45.4284 58.2856C38.3276 58.2856 32.5713 52.5292 32.5713 45.4284C32.5713 38.3276 38.3276 32.5713 45.4284 32.5713C52.5292 32.5713 58.2856 38.3276 58.2856 45.4284Z" fill="#CBAC8D"/>
<path fill-rule="evenodd" clip-rule="evenodd" d="M30 3.125C28.4882 3.125 27.096 3.50073 25.572 4.13105C24.1002 4.7397 22.3908 5.63677 20.2622 6.75382L15.0935 9.46627C12.481 10.8372 10.3904 11.9343 8.77618 13.0123C7.10385 14.1291 5.8158 15.305 4.8778 16.8979C3.94295 18.4855 3.5224 20.2046 3.32073 22.2518C3.12498 24.2389 3.12498 26.6827 3.125 29.7565V30.2435C3.12498 33.317 3.12498 35.761 3.32073 37.7482C3.5224 39.7955 3.94295 41.5145 4.8778 43.102C5.8158 44.695 7.10385 45.871 8.77618 46.9877C10.3903 48.0657 12.4808 49.1627 15.0931 50.5335L20.2621 53.2462C22.3907 54.3632 24.1002 55.2602 25.572 55.869C27.096 56.4992 28.4882 56.875 30 56.875C31.5117 56.875 32.904 56.4992 34.428 55.869C35.8997 55.2602 37.6092 54.3632 39.7377 53.2462L44.9065 50.5337C47.519 49.1627 49.6095 48.0657 51.2237 46.9877C52.8962 45.871 54.1842 44.695 55.1222 43.102C56.057 41.5145 56.4775 39.7955 56.6792 37.7482C56.875 35.761 56.875 33.3172 56.875 30.2437V29.7562C56.875 26.6827 56.875 24.2389 56.6792 22.2518C56.4775 20.2046 56.057 18.4855 55.1222 16.8979C54.1842 15.305 52.8962 14.1291 51.2237 13.0123C49.6095 11.9343 47.519 10.8372 44.9065 9.46625L39.7377 6.75385C37.6092 5.6368 35.8997 4.73972 34.428 4.13105C32.904 3.50073 31.5117 3.125 30 3.125ZM21.927 10.1152C24.1513 8.94792 25.71 8.132 27.005 7.5964C28.2655 7.0751 29.1512 6.875 30 6.875C30.8487 6.875 31.7345 7.0751 32.995 7.5964C34.29 8.132 35.8487 8.94792 38.073 10.1152L43.073 12.7391C45.7972 14.1687 47.7112 15.1758 49.1412 16.1308C49.8467 16.6019 50.401 17.0394 50.8487 17.4793L30 27.9037L9.15135 17.4793C9.5989 17.0394 10.1533 16.6019 10.8588 16.1308C12.2888 15.1758 14.2028 14.1687 16.927 12.7391L21.927 10.1152ZM7.3442 20.7684C7.21795 21.3031 7.12252 21.9103 7.05265 22.6194C6.8771 24.4015 6.875 26.661 6.875 29.8537V30.1462C6.875 33.339 6.8771 35.5985 7.05265 37.3805C7.22435 39.1235 7.55055 40.2505 8.10918 41.1992C8.66468 42.1425 9.46818 42.9405 10.8588 43.8692C12.2888 44.8242 14.2028 45.8312 16.927 47.261L21.927 49.8847C24.1513 51.052 25.71 51.868 27.005 52.4035C27.414 52.5727 27.7835 52.708 28.125 52.8137V31.1587L7.3442 20.7684ZM31.875 52.8137C32.2165 52.708 32.586 52.5727 32.995 52.4035C34.29 51.868 35.8487 51.052 38.073 49.8847L43.073 47.261C45.7972 45.8312 47.7112 44.8242 49.1412 43.8692C50.5317 42.9405 51.3352 42.1425 51.8907 41.1992C52.4495 40.2505 52.7757 39.1235 52.9472 37.3805C53.123 35.5985 53.125 33.339 53.125 30.1462V29.8537C53.125 26.661 53.123 24.4015 52.9472 22.6194C52.8775 21.9103 52.782 21.3031 52.6557 20.7684L31.875 31.1587V52.8137Z" fill="black"/>
</svg>
