<svg width="60" height="60" viewBox="0 0 60 60" fill="none" xmlns="http://www.w3.org/2000/svg">
<g clip-path="url(#clip0_337_106769)">
<path d="M58.2856 47.1433C58.2856 54.2441 52.5292 60.0004 45.4284 60.0004C38.3276 60.0004 32.5713 54.2441 32.5713 47.1433C32.5713 40.0425 38.3276 34.2861 45.4284 34.2861C52.5292 34.2861 58.2856 40.0425 58.2856 47.1433Z" fill="#CBAC8D"/>
<path d="M49.6875 5.625H38.5163V7.5H49.6875C50.205 7.5 50.625 7.92188 50.625 8.4375V55.3125C50.625 55.8281 50.205 56.25 49.6875 56.25H10.3125C9.795 56.25 9.375 55.8281 9.375 55.3125V8.4375C9.375 7.92188 9.795 7.5 10.3125 7.5H21.5625V5.625H10.3125C8.76187 5.625 7.5 6.88687 7.5 8.4375V55.3125C7.5 56.8631 8.76187 58.125 10.3125 58.125H49.6875C51.2381 58.125 52.5 56.8631 52.5 55.3125V8.4375C52.5 6.88687 51.2381 5.625 49.6875 5.625Z" fill="#090909"/>
<path d="M38.4375 54.375C38.3175 54.375 38.1956 54.3506 38.0794 54.3038C37.7288 54.1594 37.5 53.8162 37.5 53.4375V44.0625C37.5 43.545 37.92 43.125 38.4375 43.125H47.8125C48.1912 43.125 48.5344 43.3538 48.6788 43.7044C48.825 44.055 48.7444 44.4581 48.4762 44.7263L39.1013 54.1012C38.9213 54.2794 38.6812 54.375 38.4375 54.375ZM39.375 45V51.1744L45.5494 45H39.375Z" fill="#090909"/>
<path d="M18.0998 33.7801C18.0923 33.7801 18.0867 33.7801 18.0792 33.7801C17.8129 33.7745 17.5617 33.6564 17.3892 33.4539L15.2273 30.9301C14.8898 30.5382 14.9348 29.9457 15.3286 29.6082C15.7223 29.2707 16.3148 29.3195 16.6504 29.7114L18.1336 31.4401L21.1148 28.2657C21.4692 27.8889 22.0617 27.8701 22.4404 28.2264C22.8192 28.5826 22.8361 29.1751 22.4817 29.552L18.7842 33.4876C18.6061 33.6732 18.3586 33.7801 18.0998 33.7801Z" fill="#090909"/>
<path d="M18.0988 24.4051C18.0913 24.4051 18.0857 24.4051 18.0782 24.4051C17.812 24.3995 17.5607 24.2814 17.3882 24.0789L15.2263 21.5551C14.8888 21.1632 14.9338 20.5707 15.3276 20.2332C15.7213 19.8957 16.3138 19.9445 16.6495 20.3364L18.1326 22.0651L21.1138 18.8907C21.4682 18.5139 22.0607 18.4951 22.4395 18.8514C22.8182 19.2076 22.8351 19.8001 22.4807 20.177L18.7832 24.1126C18.6051 24.2982 18.3576 24.4051 18.0988 24.4051Z" fill="#090909"/>
<path d="M32.8125 43.125H25.3125C24.795 43.125 24.375 42.705 24.375 42.1875C24.375 41.67 24.795 41.25 25.3125 41.25H32.8125C33.33 41.25 33.75 41.67 33.75 42.1875C33.75 42.705 33.33 43.125 32.8125 43.125Z" fill="#090909"/>
<path d="M42.1875 39.375H25.3125C24.795 39.375 24.375 38.955 24.375 38.4375C24.375 37.92 24.795 37.5 25.3125 37.5H42.1875C42.705 37.5 43.125 37.92 43.125 38.4375C43.125 38.955 42.705 39.375 42.1875 39.375Z" fill="#090909"/>
<path d="M42.1875 30H36.5625C36.045 30 35.625 29.58 35.625 29.0625C35.625 28.545 36.045 28.125 36.5625 28.125H42.1875C42.705 28.125 43.125 28.545 43.125 29.0625C43.125 29.58 42.705 30 42.1875 30Z" fill="#090909"/>
<path d="M38.4375 33.75H25.3125C24.795 33.75 24.375 33.33 24.375 32.8125C24.375 32.295 24.795 31.875 25.3125 31.875H38.4375C38.955 31.875 39.375 32.295 39.375 32.8125C39.375 33.33 38.955 33.75 38.4375 33.75Z" fill="#090909"/>
<path d="M32.8125 30H25.3125C24.795 30 24.375 29.58 24.375 29.0625C24.375 28.545 24.795 28.125 25.3125 28.125H32.8125C33.33 28.125 33.75 28.545 33.75 29.0625C33.75 29.58 33.33 30 32.8125 30Z" fill="#090909"/>
<path d="M42.1875 20.625H25.3125C24.795 20.625 24.375 20.205 24.375 19.6875C24.375 19.17 24.795 18.75 25.3125 18.75H42.1875C42.705 18.75 43.125 19.17 43.125 19.6875C43.125 20.205 42.705 20.625 42.1875 20.625Z" fill="#090909"/>
<path d="M34.6875 24.375H25.3125C24.795 24.375 24.375 23.955 24.375 23.4375C24.375 22.92 24.795 22.5 25.3125 22.5H34.6875C35.205 22.5 35.625 22.92 35.625 23.4375C35.625 23.955 35.205 24.375 34.6875 24.375Z" fill="#090909"/>
<path d="M19.6875 43.125H15.9375C15.42 43.125 15 42.705 15 42.1875V38.4375C15 37.92 15.42 37.5 15.9375 37.5H19.6875C20.205 37.5 20.625 37.92 20.625 38.4375V42.1875C20.625 42.705 20.205 43.125 19.6875 43.125ZM16.875 41.25H18.75V39.375H16.875V41.25Z" fill="#090909"/>
<path d="M38.4375 13.125H21.5625C21.045 13.125 20.625 12.705 20.625 12.1875V6.5625C20.625 5.01187 21.8869 3.75 23.4375 3.75C23.955 3.75 24.375 4.17 24.375 4.6875C24.375 5.205 23.955 5.625 23.4375 5.625C22.92 5.625 22.5 6.04688 22.5 6.5625V11.25H37.5V6.5625C37.5 6.04688 37.08 5.625 36.5625 5.625C36.045 5.625 35.625 5.205 35.625 4.6875C35.625 4.17 36.045 3.75 36.5625 3.75C38.1131 3.75 39.375 5.01187 39.375 6.5625V12.1875C39.375 12.705 38.955 13.125 38.4375 13.125Z" fill="#090909"/>
<path d="M32.8125 5.625C32.295 5.625 31.875 5.205 31.875 4.6875C31.875 4.17188 31.455 3.75 30.9375 3.75H29.0625C28.86 3.75 28.6669 3.81187 28.5075 3.93187C28.2638 4.11 28.125 4.38562 28.125 4.6875C28.125 5.205 27.705 5.625 27.1875 5.625C26.67 5.625 26.25 5.205 26.25 4.6875C26.25 3.79688 26.6775 2.95125 27.3919 2.42437C27.8756 2.06625 28.455 1.875 29.0625 1.875H30.9375C32.4881 1.875 33.75 3.13687 33.75 4.6875C33.75 5.205 33.33 5.625 32.8125 5.625Z" fill="#090909"/>
</g>
<defs>
<clipPath id="clip0_337_106769">
<rect width="60" height="60" fill="white"/>
</clipPath>
</defs>
</svg>
