<svg width="60" height="60" viewBox="0 0 60 60" fill="none" xmlns="http://www.w3.org/2000/svg">
<g clip-path="url(#clip0_337_106832)">
<path d="M60.0004 40.2859C60.0004 47.3867 54.2441 53.143 47.1433 53.143C40.0425 53.143 34.2861 47.3867 34.2861 40.2859C34.2861 33.185 40.0425 27.4287 47.1433 27.4287C54.2441 27.4287 60.0004 33.185 60.0004 40.2859Z" fill="#CBAC8D"/>
<path d="M28.8252 10.6621C30.3502 10.6621 31.8133 11.2683 32.8916 12.3467C33.9697 13.425 34.5752 14.8873 34.5752 16.4121V22.2617H46.0244L46.3662 22.2734C47.162 22.323 47.9399 22.5378 48.6504 22.9053C49.3609 23.2728 49.986 23.7834 50.4863 24.4043L50.6934 24.6768L50.6943 24.6797L53.2695 28.2539C53.9235 29.1658 54.296 30.2473 54.3447 31.3652L54.3506 31.5898V41.2617C54.3506 42.0698 54.0495 42.8472 53.5098 43.4434L53.3984 43.5605C52.789 44.1699 51.9624 44.5117 51.1006 44.5117H47.6162L47.5557 44.9424C47.3944 46.0845 46.8511 47.1359 46.0186 47.9277L45.8486 48.083C44.9199 48.8899 43.7303 49.334 42.5 49.334C41.3466 49.3339 40.2295 48.9432 39.3291 48.2295L39.1523 48.083C38.2236 47.2761 37.6173 46.1606 37.4453 44.9424L37.3848 44.5117H22.6162L22.5557 44.9424C22.3944 46.0845 21.8511 47.1359 21.0186 47.9277L20.8486 48.083C19.9199 48.8899 18.7303 49.334 17.5 49.334C16.3466 49.3339 15.2295 48.9432 14.3291 48.2295L14.1523 48.083C13.2236 47.2761 12.6173 46.1606 12.4453 44.9424L12.3848 44.5117H8.90039C8.09213 44.5117 7.31498 44.2109 6.71875 43.6709L6.60254 43.5605C5.99305 42.9511 5.65039 42.1237 5.65039 41.2617V16.4131C5.65448 14.9843 6.18874 13.6116 7.14355 12.5576L7.33984 12.3516C8.35025 11.3412 9.69688 10.744 11.1172 10.6699L11.4014 10.6621H28.8252ZM18.8877 40.8633C18.2253 40.5889 17.4962 40.5174 16.793 40.6572C16.1778 40.7797 15.6066 41.0592 15.1338 41.4668L14.9375 41.6484C14.4306 42.1554 14.0852 42.8017 13.9453 43.5049C13.823 44.12 13.8621 44.7549 14.0576 45.3477L14.1514 45.5996C14.3915 46.1792 14.7774 46.6851 15.2695 47.0693L15.4863 47.2266C16.0823 47.6248 16.7832 47.8368 17.5 47.8369C18.4614 47.8369 19.3837 47.4551 20.0635 46.7754C20.7433 46.0956 21.125 45.1733 21.125 44.2119C21.125 43.5848 20.9627 42.9699 20.6553 42.4268L20.5146 42.1982C20.1164 41.6022 19.55 41.1377 18.8877 40.8633ZM43.8877 40.8633C43.2253 40.5889 42.4961 40.5174 41.793 40.6572C41.1778 40.7797 40.6066 41.0592 40.1338 41.4668L39.9375 41.6484C39.4306 42.1554 39.0852 42.8017 38.9453 43.5049C38.823 44.12 38.8621 44.7549 39.0576 45.3477L39.1514 45.5996C39.3915 46.1792 39.7774 46.6851 40.2695 47.0693L40.4863 47.2266C41.0823 47.6248 41.7832 47.8368 42.5 47.8369C43.4614 47.8369 44.3837 47.4551 45.0635 46.7754C45.7433 46.0956 46.125 45.1733 46.125 44.2119C46.125 43.5848 45.9627 42.9699 45.6553 42.4268L45.5146 42.1982C45.1662 41.6767 44.6892 41.2555 44.1318 40.9746L43.8877 40.8633ZM11.4004 12.1621C10.3436 12.1621 9.32749 12.5557 8.54785 13.2617L8.39551 13.4072C7.59848 14.2043 7.15039 15.2849 7.15039 16.4121V41.2617C7.15039 41.6678 7.29171 42.0597 7.54688 42.3711L7.66309 42.5C7.99125 42.828 8.4364 43.0117 8.90039 43.0117H12.4902L12.6016 42.6641C12.9126 41.6903 13.5061 40.8325 14.3047 40.1992L14.4678 40.0762C15.3482 39.4332 16.4099 39.086 17.5 39.0859C18.5222 39.0859 19.52 39.391 20.3662 39.959L20.5332 40.0762C21.4137 40.7193 22.0677 41.6254 22.3994 42.6641L22.5098 43.0117H33.0752V16.4121L33.0703 16.2012C33.0216 15.2207 32.6345 14.2872 31.9756 13.5596L31.8311 13.4072C31.034 12.6102 29.9524 12.1621 28.8252 12.1621H11.4004ZM52.8506 31.583C52.8448 30.8116 52.6322 30.058 52.2383 29.3994L52.0586 29.123L52.0557 29.1201L49.4814 25.5449C49.1362 25.0655 48.696 24.6629 48.1895 24.3623L47.9688 24.2402C47.4438 23.9692 46.869 23.8101 46.2812 23.7715L46.0283 23.7617H34.5752V43.0117H37.4902L37.6016 42.6641C37.9126 41.6903 38.5061 40.8325 39.3047 40.1992L39.4678 40.0762C40.3482 39.4332 41.4099 39.086 42.5 39.0859C43.5222 39.0859 44.52 39.391 45.3662 39.959L45.5332 40.0762C46.4137 40.7193 47.0677 41.6254 47.3994 42.6641L47.5098 43.0117H51.1006C51.5067 43.0117 51.8986 42.8714 52.21 42.6162L52.3379 42.5C52.6661 42.1718 52.8506 41.7259 52.8506 41.2617V31.583Z" fill="black" stroke="black"/>
<path d="M40.0732 28.5117H45.0732C45.2224 28.5117 45.367 28.5562 45.4893 28.6377L45.6035 28.7314C45.7442 28.8721 45.8232 29.0628 45.8232 29.2617C45.8232 29.4109 45.7788 29.5554 45.6973 29.6777L45.6035 29.792C45.4629 29.9326 45.2722 30.0117 45.0732 30.0117H40.0732C39.9241 30.0117 39.7795 29.9673 39.6572 29.8857L39.543 29.792C39.4023 29.6513 39.3232 29.4606 39.3232 29.2617C39.3232 29.0628 39.4023 28.8721 39.543 28.7314C39.6836 28.5908 39.8743 28.5117 40.0732 28.5117Z" fill="black" stroke="black"/>
</g>
<defs>
<clipPath id="clip0_337_106832">
<rect width="60" height="60" fill="white"/>
</clipPath>
</defs>
</svg>
