<svg width="60" height="60" viewBox="0 0 60 60" fill="none" xmlns="http://www.w3.org/2000/svg">
<g clip-path="url(#clip0_337_106846)">
<path d="M60.0004 41.9997C60.0004 49.1005 54.2441 54.8569 47.1433 54.8569C40.0425 54.8569 34.2861 49.1005 34.2861 41.9997C34.2861 34.8989 40.0425 29.1426 47.1433 29.1426C54.2441 29.1426 60.0004 34.8989 60.0004 41.9997Z" fill="#CBAC8D"/>
<path d="M55.2788 16.1696L36.5288 5.85708C36.2519 5.70483 35.9411 5.625 35.6252 5.625C35.3093 5.625 34.9985 5.70483 34.7216 5.85708L15.9716 16.1696C15.6777 16.3314 15.4325 16.5692 15.2618 16.8581C15.091 17.147 15.001 17.4765 15.001 17.8121C15.001 18.1477 15.091 18.4771 15.2618 18.766C15.4325 19.0549 15.6777 19.2927 15.9716 19.4546L33.7502 29.2333V49.3282L28.0573 46.1983L26.2502 49.4831L34.7216 54.1421C34.9984 54.2946 35.3092 54.3746 35.6252 54.3746C35.9412 54.3746 36.252 54.2946 36.5288 54.1421L55.2788 43.8296C55.5729 43.6678 55.8182 43.4301 55.9891 43.1412C56.1599 42.8522 56.2501 42.5227 56.2502 42.1871V17.8121C56.2501 17.4764 56.1599 17.1469 55.9891 16.858C55.8182 16.5691 55.5729 16.3313 55.2788 16.1696ZM35.6252 9.64008L50.4842 17.8121L35.6252 25.9841L20.7662 17.8121L35.6252 9.64008ZM52.5002 41.0784L37.5002 49.3284V29.2333L52.5002 20.9833V41.0784Z" fill="black"/>
<path d="M3.75 30L18.75 30V26.25H3.75V30Z" fill="black"/>
<path d="M7.5 45H22.5V41.25H7.5V45Z" fill="black"/>
<path d="M11.25 37.5H26.25V33.75H11.25V37.5Z" fill="black"/>
</g>
<defs>
<clipPath id="clip0_337_106846">
<rect width="60" height="60" fill="white"/>
</clipPath>
</defs>
</svg>
