<svg width="60" height="60" viewBox="0 0 60 60" fill="none" xmlns="http://www.w3.org/2000/svg">
<g clip-path="url(#clip0_337_106755)">
<path d="M60.0004 47.1433C60.0004 54.2441 54.2441 60.0004 47.1433 60.0004C40.0425 60.0004 34.2861 54.2441 34.2861 47.1433C34.2861 40.0425 40.0425 34.2861 47.1433 34.2861C54.2441 34.2861 60.0004 40.0425 60.0004 47.1433Z" fill="#CBAC8D"/>
<path d="M17.5781 27.0938H42.4688V29.9062H17.5781V27.0938ZM17.5781 39.4687H32.8125V42.2812H17.5781V39.4687Z" fill="black"/>
<path d="M47.9531 57.5156H12.0469C11.2969 57.5156 10.5938 57.375 9.89063 57.0938C9.23438 56.8125 8.625 56.4375 8.15625 55.9219C7.64062 55.4062 7.26562 54.8438 6.98437 54.1875C6.70312 53.4844 6.5625 52.7812 6.5625 52.0312V14.6719C6.5625 13.9219 6.70312 13.2188 6.98437 12.5156C7.26562 11.8594 7.64062 11.25 8.15625 10.7812C8.67187 10.2656 9.23438 9.89062 9.89063 9.60938C10.5938 9.32812 11.2969 9.1875 12.0469 9.1875H17.4844V11.9531H12.0469C10.5469 11.9531 9.28125 13.1719 9.28125 14.7188V52.0781C9.28125 53.5781 10.5 54.8438 12.0469 54.8438H47.9062C49.4062 54.8438 50.6719 53.625 50.6719 52.0781V14.6719C50.6719 13.1719 49.4531 11.9062 47.9062 11.9062H42.5156V9.14062H47.9531C48.7031 9.14062 49.4062 9.28125 50.1094 9.5625C50.7656 9.84375 51.375 10.2187 51.8438 10.7344C52.3594 11.25 52.7344 11.8125 53.0156 12.4688C53.2969 13.1719 53.4375 13.875 53.4375 14.625V51.9844C53.4375 52.7344 53.2969 53.4375 53.0156 54.1406C52.7344 54.7969 52.3594 55.4062 51.8438 55.875C51.3281 56.3906 50.7656 56.7656 50.1094 57.0469C49.4062 57.375 48.7031 57.5156 47.9531 57.5156Z" fill="black"/>
<path d="M43.7813 17.4375H16.2188V8.4375C16.2188 6.51562 17.7656 4.96875 19.6875 4.96875H23.25C24.5156 2.4375 27.1406 0.796875 30.0469 0.796875C32.9531 0.796875 35.5781 2.4375 36.8438 4.96875H40.4062C42.3281 4.96875 43.875 6.51562 43.875 8.4375L43.7813 17.4375ZM18.9844 14.6719H41.0625V8.4375C41.0625 8.0625 40.7344 7.73438 40.3594 7.73438H34.875L34.5469 6.79688C33.8906 4.875 32.0625 3.5625 30 3.5625C27.9375 3.5625 26.1094 4.875 25.4531 6.79688L25.125 7.73438H19.6406C19.2656 7.73438 18.9375 8.0625 18.9375 8.4375V14.6719H18.9844Z" fill="black"/>
</g>
<defs>
<clipPath id="clip0_337_106755">
<rect width="60" height="60" fill="white"/>
</clipPath>
</defs>
</svg>
